<svg width="108" height="108" viewBox="0 0 108 108" fill="none" xmlns="http://www.w3.org/2000/svg">
<path d="M23.5598 22.7823C21.3483 22.7874 19.2284 23.6872 17.6634 25.2843C16.099 26.8814 15.2166 29.0466 15.209 31.3064V75.8084H12.7317C12.0466 75.8084 11.4893 76.288 11.4893 76.9874V82.5538C11.4943 84.8045 12.3749 86.96 13.9367 88.5462C15.4986 90.1329 17.614 91.019 19.8168 91.0108H88.1836C90.3864 91.0192 92.5017 90.133 94.0637 88.5462C95.6256 86.96 96.5062 84.8045 96.5112 82.5538V76.9874C96.5112 76.2874 95.9539 75.8084 95.2688 75.8084H92.7915V31.3064C92.7839 29.0468 91.9014 26.8815 90.337 25.2843C88.772 23.6871 86.6521 22.7874 84.4406 22.7823H63.7424V17.8959H71.3285C72.0143 17.9107 72.5823 17.3568 72.5988 16.6562V11.7807C73.375 11.5442 74.0835 11.1202 74.6649 10.5443C75.5448 9.64324 76.0389 8.42165 76.0376 7.1484C76.037 5.87509 75.5411 4.65482 74.6598 3.75502C73.7786 2.85466 72.5831 2.34921 71.3374 2.34921C70.0912 2.34921 68.8962 2.85466 68.0143 3.75502C67.1331 4.65474 66.6377 5.87497 66.6365 7.1484C66.6358 8.4217 67.1293 9.64329 68.0092 10.5443H68.0238C68.5887 11.157 69.3168 11.5868 70.119 11.7807V15.3622H62.5158C61.8232 15.3739 61.2665 15.9485 61.2627 16.6562V22.7823H55.2402V10.9864C56.7142 10.574 57.8997 9.45388 58.4171 7.98466C58.9346 6.51551 58.7195 4.88019 57.8402 3.60312C56.9615 2.32528 55.5287 1.56525 54.0003 1.56525C52.4719 1.56525 51.0391 2.32536 50.1604 3.60312C49.2811 4.88032 49.066 6.51565 49.5835 7.98466C50.101 9.45381 51.2865 10.5739 52.7604 10.9864V22.7823H46.3838V16.6562C46.3629 15.942 45.7942 15.3713 45.0945 15.3622H37.8817V11.7807C38.6838 11.5868 39.4125 11.157 39.978 10.5443C40.8586 9.64453 41.3539 8.4248 41.3552 7.15286C41.3565 5.8802 40.8637 4.65929 39.9856 3.7575H39.9894H39.9888C38.8027 2.54302 37.0718 2.06727 35.4493 2.51004C33.8268 2.95281 32.5583 4.24611 32.1225 5.90341C31.686 7.56072 32.1484 9.32971 33.3345 10.5442C33.9165 11.1201 34.6257 11.5441 35.4019 11.7807V16.6562C35.4184 17.3568 35.9865 17.9107 36.6722 17.8959H43.904V22.7822L23.5598 22.7823ZM69.7612 8.75257C69.0141 7.98858 68.899 6.79147 69.4867 5.89316C70.0737 4.99537 71.2004 4.64634 72.1777 5.05936C73.1544 5.47302 73.7092 6.53433 73.503 7.59363C73.2968 8.65299 72.3865 9.4164 71.3287 9.4164C70.741 9.41576 70.1774 9.17725 69.7611 8.7526L69.7612 8.75257ZM51.782 6.35712C51.782 5.60089 52.1521 4.89444 52.7676 4.47362C53.3831 4.05349 54.1631 3.97464 54.8476 4.26421C55.5315 4.55377 56.0293 5.17298 56.1736 5.915C56.3178 6.65701 56.0907 7.42358 55.5669 7.95883C54.933 8.60648 53.9791 8.80037 53.151 8.4494C52.3229 8.09908 51.7827 7.27304 51.7821 6.35709L51.782 6.35712ZM35.1049 5.54918C35.9709 4.66628 37.3734 4.66628 38.24 5.54918C38.8739 6.19683 39.0636 7.17153 38.7201 8.0176C38.3773 8.86433 37.5688 9.4163 36.6723 9.4163C35.7753 9.4163 34.9669 8.86433 34.6241 8.0176C34.2806 7.17153 34.4703 6.19682 35.1048 5.54918H35.1049ZM94.0319 82.5537C94.0275 84.1321 93.4088 85.6446 92.3113 86.7557C91.2143 87.8668 89.7291 88.4866 88.1843 88.4769H19.8174C18.2726 88.4866 16.7873 87.8667 15.6904 86.7557C14.5929 85.6446 13.9741 84.1322 13.9698 82.5537V78.3421H43.0632L44.133 79.4641C45.7176 81.1918 47.9374 82.1632 50.2546 82.1427H57.7472C60.0645 82.1634 62.2843 81.1919 63.8689 79.4641L64.9386 78.3421H94.0321L94.0319 82.5537ZM90.3122 31.3056V75.8076H64.3945C64.0535 75.7915 63.722 75.924 63.4823 76.1722L62.0444 77.7247C60.9323 78.9385 59.3736 79.6218 57.7465 79.6082H50.254C48.6238 79.6134 47.0656 78.9231 45.9561 77.7027L44.5182 76.1618V76.1624C44.2772 75.9168 43.9457 75.7876 43.606 75.8076H17.6883V31.3056C17.6952 29.7175 18.3158 28.1966 19.4159 27.0746C20.516 25.9519 22.0051 25.3198 23.5594 25.3152H84.4395C85.9938 25.3197 87.483 25.9519 88.5831 27.0746C89.6832 28.1967 90.3037 29.7176 90.3107 31.3056L90.3122 31.3056Z" fill="white"/>
<path d="M85.8832 31.6511C85.8832 31.315 85.7528 30.9931 85.52 30.7552C85.2872 30.5174 84.9722 30.3842 84.6433 30.3842H23.5348C22.8503 30.3842 22.2949 30.9517 22.2949 31.6511V70.562C22.2949 71.2614 22.8503 71.8288 23.5348 71.8288H84.6433C85.3277 71.8288 85.8831 71.2613 85.8831 70.562L85.8832 31.6511ZM24.7747 32.9179H83.2273V69.4759H24.7747V32.9179Z" fill="white"/>
<path d="M60.4742 36.4613C58.6985 36.46 56.9848 37.1258 55.6596 38.3326C54.3337 39.5393 53.4892 41.2024 53.2868 43.0043C53.0837 44.8064 53.5373 46.6213 54.5608 48.104L40.6525 62.3147C40.1679 62.8092 40.1679 63.6113 40.6525 64.1064C41.1364 64.6008 41.9215 64.6008 42.406 64.1064L43.4865 63.0024L46.6172 66.1747C47.1006 66.6653 47.8805 66.6653 48.3638 66.1747L52.8312 61.6438H52.8319C53.0653 61.4065 53.1975 61.084 53.1982 60.7473C53.1988 60.4105 53.0678 60.0873 52.835 59.8488L49.7043 56.65L56.3143 49.8957C58.2001 51.2511 60.6052 51.6073 62.7901 50.8536C64.9745 50.1 66.6768 48.327 67.3721 46.0809C68.0679 43.8349 67.6732 41.3839 66.3106 39.4836C64.9479 37.5834 62.78 36.4606 60.4742 36.4612L60.4742 36.4613ZM50.2014 60.7401L47.4901 63.4903L45.2405 61.21L47.9505 58.4411L50.2014 60.7401ZM60.4749 48.7116C59.2141 48.7122 58.0039 48.2003 57.1119 47.2896C56.22 46.3789 55.7189 45.143 55.7183 43.8542C55.7183 42.5654 56.2193 41.3295 57.1107 40.4181C58.0026 39.5068 59.2122 38.9949 60.4736 38.9949C61.7344 38.9942 62.9439 39.5061 63.8359 40.4175C64.7279 41.3288 65.2289 42.5647 65.2289 43.8536C65.2277 45.1411 64.726 46.3763 63.8347 47.287C62.9433 48.1977 61.735 48.7102 60.4743 48.7115L60.4749 48.7116Z" fill="white"/>
</svg>
