<svg width="108" height="108" viewBox="0 0 108 108" fill="none" xmlns="http://www.w3.org/2000/svg">
<g clip-path="url(#clip0_1001_12908)">
<path d="M85.1699 9.55945H20.0154C18.2882 9.56178 16.632 10.2488 15.4104 11.4699C14.1893 12.6915 13.5024 14.3477 13.5 16.0749V57.7737C13.5023 59.501 14.1894 61.1572 15.4104 62.3788C16.632 63.5998 18.2882 64.2868 20.0154 64.2892H41.8805L39.7956 74.7139H35.6519C34.2552 74.7139 32.9649 75.4591 32.2663 76.6685C31.5682 77.878 31.5682 79.3684 32.2663 80.5778C32.9649 81.7872 34.2551 82.5324 35.6519 82.5324H69.5322C70.929 82.5324 72.2193 81.7872 72.9179 80.5778C73.616 79.3684 73.616 77.8779 72.9179 76.6685C72.2192 75.4591 70.929 74.7139 69.5322 74.7139H65.3885L63.3036 64.2892H85.1687C86.8959 64.2869 88.5521 63.5998 89.7737 62.3788C90.9948 61.1571 91.6817 59.501 91.6841 57.7737V16.0749C91.6818 14.3477 90.9948 12.6915 89.7737 11.4699C88.5521 10.2488 86.8959 9.56183 85.1687 9.55945H85.1699ZM20.0154 12.1656H85.1699C86.2065 12.1656 87.2014 12.5775 87.9342 13.3105C88.6671 14.0435 89.0791 15.0383 89.0791 16.0748V51.2582H16.1061V16.0748C16.1061 15.0382 16.518 14.0433 17.251 13.3105C17.984 12.5776 18.9788 12.1656 20.0153 12.1656H20.0154ZM70.8359 78.6232C70.8359 78.9687 70.6986 79.3003 70.4543 79.5446C70.21 79.789 69.8784 79.9262 69.5328 79.9262H35.6525C34.9329 79.9262 34.3494 79.3428 34.3494 78.6232C34.3494 77.9036 34.9329 77.3201 35.6525 77.3201H69.5328C69.8784 77.3201 70.21 77.4574 70.4543 77.7017C70.6986 77.946 70.8359 78.2776 70.8359 78.6232ZM62.7305 74.7139H42.4545L44.5394 64.2892H60.6471L62.7305 74.7139ZM85.1705 61.683H20.016C18.9794 61.683 17.9846 61.2711 17.2517 60.5381C16.5188 59.8052 16.1068 58.8103 16.1068 57.7738V53.8645H89.0798V57.7738C89.0798 58.8105 88.668 59.8053 87.935 60.5381C87.202 61.271 86.2071 61.683 85.1706 61.683H85.1705Z" fill="white"/>
<path d="M53.0872 56.575C52.8498 56.4709 52.5852 56.4435 52.3315 56.4971C52.2501 56.511 52.171 56.5372 52.0971 56.575C52.0139 56.6041 51.9342 56.6431 51.8609 56.6925C51.7934 56.7408 51.7289 56.7932 51.6672 56.849C51.5462 56.9712 51.4531 57.1178 51.3932 57.2789C51.3263 57.4354 51.2914 57.6035 51.2891 57.774C51.2908 58.1195 51.4264 58.4511 51.6672 58.6989C51.7289 58.7548 51.7934 58.8071 51.8609 58.8554C51.9342 58.9048 52.0139 58.9438 52.0971 58.9729C52.171 59.0107 52.2501 59.0369 52.3315 59.0509C52.4176 59.066 52.5049 59.0747 52.5922 59.077C53.1215 59.0799 53.6003 58.7623 53.8033 58.2737C54.0064 57.785 53.8935 57.2213 53.5171 56.849C53.3903 56.7338 53.2449 56.6413 53.0872 56.575L53.0872 56.575Z" fill="white"/>
<path d="M77.3516 19.984H82.5639V22.5902H77.3516V19.984Z" fill="white"/>
<path d="M77.3516 25.1967H82.5639V27.8028H77.3516V25.1967Z" fill="white"/>
<path d="M38.6054 22.1735C36.5018 25.2438 35.4728 28.9239 35.6787 32.64C35.8841 36.3561 37.3135 39.9001 39.7427 42.7192L37.7194 44.7431H33.0463V47.3493H38.2587C38.6042 47.3493 38.9358 47.212 39.1802 46.9677L41.5856 44.5622C45.5158 47.9479 50.7823 49.343 55.8735 48.3464C60.9644 47.3493 65.3162 44.0712 67.6792 39.4528C70.0422 34.8349 70.1545 29.3876 67.9846 24.6755L70.0696 22.5905H74.7451V19.9844H69.5327C69.1872 19.9844 68.8556 20.1216 68.6112 20.366L66.666 22.3066C63.8044 18.0058 59.1319 15.2507 53.983 14.8284C48.8347 14.406 43.7759 16.3624 40.2511 20.1396L37.8717 17.7602V17.7597C37.6286 17.5165 37.2993 17.3792 36.9555 17.378H31.7432V19.9842H36.4163L38.6054 22.1735ZM43.4268 42.7206L44.3925 41.7549L42.5501 39.9125L41.5845 40.8782H41.5839C39.7229 38.6502 38.5862 35.9073 38.325 33.0155H40.9416C41.2499 35.8078 42.5523 38.3965 44.6106 40.3087C46.6688 42.2209 49.346 43.3297 52.1533 43.4321C54.9613 43.5345 57.7118 42.6241 59.9044 40.8666L61.759 42.7212H61.7584C59.1871 44.8695 55.9433 46.0464 52.5925 46.0464C49.2417 46.0464 45.998 44.8695 43.4267 42.7212L43.4268 42.7206ZM52.5927 22.5905C55.0121 22.5905 57.332 23.5515 59.0424 25.2623C60.7533 26.9726 61.7143 29.2925 61.7143 31.7121C61.7143 34.1316 60.7533 36.4514 59.0424 38.1618C57.3322 39.8727 55.0122 40.8337 52.5927 40.8337C50.1731 40.8337 47.8533 39.8727 46.1429 38.1618C44.432 36.4516 43.471 34.1316 43.471 31.7121C43.4739 29.2938 44.4356 26.9749 46.1459 25.2653C47.8555 23.555 50.1744 22.5934 52.5927 22.5905ZM64.7777 24.1996L63.3989 25.5783L65.2413 27.4206L65.9929 26.669H65.9935C66.8946 29.0356 67.1482 31.5992 66.7276 34.096C66.307 36.5929 65.228 38.9327 63.6014 40.8727L61.7469 39.0181V39.0187C63.5019 36.8261 64.4113 34.0762 64.3082 31.27C64.2052 28.4637 63.097 25.7878 61.1854 23.7301C59.2738 21.6726 56.6868 20.3706 53.8957 20.0611V17.4445C58.3832 17.8604 62.414 20.3625 64.7776 24.1996L64.7777 24.1996ZM51.2896 17.4445V20.0611C48.6485 20.3601 46.1865 21.5469 44.307 23.4265C42.4274 25.3061 41.2406 27.768 40.9416 30.4091H38.325C38.5309 28.1502 39.2738 25.9734 40.492 24.0606L41.2465 24.8151L43.0888 22.9728L42.0969 21.9809H42.0975C44.4955 19.3846 47.7701 17.7686 51.2896 17.4445L51.2896 17.4445Z" fill="white"/>
<path d="M23.9248 17.3781H29.1372V19.9842H23.9248V17.3781Z" fill="white"/>
<path d="M23.9248 22.5903H29.1372V25.1965H23.9248V22.5903Z" fill="white"/>
<path d="M25.2275 44.743H30.4399V47.3492H25.2275V44.743Z" fill="white"/>
<path d="M25.2275 39.5304H30.4399V42.1366H25.2275V39.5304Z" fill="white"/>
</g>
<defs>
<clipPath id="clip0_1001_12908">
<rect width="108" height="108" fill="white"/>
</clipPath>
</defs>
</svg>
