<svg width="50" height="50" viewBox="0 0 50 50" fill="none" xmlns="http://www.w3.org/2000/svg">
<rect width="50" height="50" rx="2" fill="#1047C8"/>
<path d="M29.375 27.5H28.3875L28.0375 27.1625C29.2625 25.7375 30 23.8875 30 21.875C30 17.3875 26.3625 13.75 21.875 13.75C17.3875 13.75 13.75 17.3875 13.75 21.875C13.75 26.3625 17.3875 30 21.875 30C23.8875 30 25.7375 29.2625 27.1625 28.0375L27.5 28.3875V29.375L33.75 35.6125L35.6125 33.75L29.375 27.5ZM21.875 27.5C18.7625 27.5 16.25 24.9875 16.25 21.875C16.25 18.7625 18.7625 16.25 21.875 16.25C24.9875 16.25 27.5 18.7625 27.5 21.875C27.5 24.9875 24.9875 27.5 21.875 27.5ZM22.5 18.75H21.25V21.25H18.75V22.5H21.25V25H22.5V22.5H25V21.25H22.5V18.75Z" fill="white"/>
</svg>
