<svg xmlns="http://www.w3.org/2000/svg" display="none">
  <symbol id="like" viewBox="0 0 33 34">
    <path d="M0.200195 18.0499C0.200195 17.6363 0.281673 17.2267 0.439975 16.8445C0.598277 16.4623 0.830305 16.1151 1.12281 15.8226C1.41531 15.5301 1.76257 15.298 2.14474 15.1397C2.52692 14.9814 2.93653 14.9 3.3502 14.9C3.76386 14.9 4.17347 14.9814 4.55565 15.1397C4.93782 15.298 5.28508 15.5301 5.57758 15.8226C5.87009 16.1151 6.10211 16.4623 6.26042 16.8445C6.41872 17.2267 6.5002 17.6363 6.5002 18.0499V30.65C6.5002 31.4854 6.16832 32.2866 5.57758 32.8773C4.98684 33.4681 4.18563 33.7999 3.3502 33.7999C2.51476 33.7999 1.71355 33.4681 1.12281 32.8773C0.532069 32.2866 0.200195 31.4854 0.200195 30.65V18.0499ZM8.60019 17.6993V29.1022C8.59983 29.8827 8.81696 30.6479 9.22721 31.3119C9.63746 31.9758 10.2246 32.5124 10.9228 32.8612L11.0278 32.9137C12.1931 33.4961 13.4778 33.7995 14.7805 33.7999H26.1541C27.1254 33.8003 28.0668 33.4641 28.8181 32.8484C29.5693 32.2327 30.0839 31.3756 30.2743 30.4232L32.7943 17.8232C32.9161 17.2139 32.9012 16.5852 32.7506 15.9824C32.6001 15.3796 32.3177 14.8177 31.9238 14.3372C31.5299 13.8567 31.0343 13.4696 30.4727 13.2038C29.9111 12.9379 29.2975 12.8 28.6762 12.8H21.2002V4.39995C21.2002 3.28604 20.7577 2.21776 19.97 1.4301C19.1824 0.64245 18.1141 0.199951 17.0002 0.199951C16.4432 0.199951 15.9091 0.4212 15.5153 0.815027C15.1214 1.20885 14.9002 1.743 14.9002 2.29995V3.70065C14.9002 5.51816 14.3107 7.28664 13.2202 8.74065L10.2802 12.6593C9.18969 14.1133 8.60019 15.8817 8.60019 17.6993Z" fill="currentColor"/>
  </symbol>
  <symbol id="social-telegram" viewBox="0 0 42 42">
    <path d="M42 21C42 32.5972 32.5972 42 21 42C9.40275 42 0 32.5972 0 21C0 9.40275 9.40275 0 21 0C32.5972 0 42 9.40275 42 21ZM21.7525 15.5033C19.7103 16.352 15.6275 18.1108 9.506 20.7778C8.512 21.1733 7.9905 21.56 7.94325 21.938C7.86275 22.5785 8.66425 22.8305 9.75275 23.1718C9.9015 23.219 10.0555 23.2663 10.213 23.3188C11.2857 23.667 12.7278 24.0747 13.4768 24.0905C14.1575 24.1045 14.917 23.8245 15.7553 23.2505C21.4743 19.3883 24.4265 17.437 24.612 17.395C24.7432 17.3652 24.9252 17.3267 25.0477 17.437C25.1702 17.5455 25.158 17.752 25.1458 17.808C25.0653 18.1458 21.9258 21.0665 20.2983 22.5785C19.7908 23.0493 19.432 23.3835 19.3585 23.4605C19.194 23.6303 19.026 23.793 18.865 23.9488C17.8675 24.9078 17.122 25.6287 18.907 26.8048C19.7645 27.37 20.4505 27.8372 21.1348 28.3027C21.882 28.812 22.6275 29.3195 23.5935 29.953C23.8385 30.114 24.073 30.2803 24.3022 30.443C25.172 31.0642 25.9543 31.6207 26.9202 31.5332C27.4803 31.4807 28.0612 30.954 28.3552 29.3807C29.05 25.6602 30.4185 17.6033 30.7352 14.2818C30.7545 14.006 30.7428 13.7289 30.7002 13.4558C30.6748 13.2351 30.5674 13.0321 30.3993 12.887C30.149 12.6823 29.7605 12.6385 29.5855 12.642C28.7962 12.656 27.5853 13.0778 21.7525 15.5033Z" fill="currentColor"/>
  </symbol>
  <symbol id="social-vk" viewBox="0 0 42 42">
    <path d="M20.9998 0.839844C9.86564 0.839844 0.839844 9.86564 0.839844 20.9998C0.839844 32.134 9.86564 41.1598 20.9998 41.1598C32.134 41.1598 41.1598 32.134 41.1598 20.9998C41.1598 9.86564 32.134 0.839844 20.9998 0.839844ZM28.753 23.5849C28.753 23.5849 30.5359 25.3447 30.9748 26.1616C30.9874 26.1784 30.9937 26.1952 30.9979 26.2036C31.1764 26.5039 31.2184 26.737 31.1302 26.9113C30.9832 27.2011 30.4792 27.3439 30.307 27.3565H27.157C26.9386 27.3565 26.4808 27.2998 25.9264 26.9176C25.5001 26.6194 25.0801 26.1301 24.6706 25.6534C24.0595 24.9436 23.5303 24.3304 22.9969 24.3304C22.9292 24.3303 22.8619 24.341 22.7974 24.3619C22.3942 24.4921 21.8776 25.0675 21.8776 26.6005C21.8776 27.0793 21.4996 27.3544 21.2329 27.3544H19.7902C19.2988 27.3544 16.7389 27.1822 14.4709 24.7903C11.6947 21.8608 9.19574 15.985 9.17474 15.9304C9.01724 15.5503 9.34274 15.3466 9.69764 15.3466H12.8791C13.3033 15.3466 13.4419 15.6049 13.5385 15.8338C13.6519 16.1005 14.0677 17.161 14.7502 18.3538C15.8569 20.2984 16.5352 21.088 17.0791 21.088C17.1811 21.0868 17.2813 21.0609 17.371 21.0124C18.0808 20.6176 17.9485 18.0871 17.917 17.5621C17.917 17.4634 17.9149 16.4302 17.5516 15.9346C17.2912 15.5755 16.8481 15.439 16.5793 15.3886C16.6881 15.2385 16.8315 15.1168 16.9972 15.0337C17.4844 14.7901 18.3622 14.7544 19.2337 14.7544H19.7188C20.6638 14.767 20.9074 14.8279 21.2497 14.914C21.9427 15.0799 21.9574 15.5272 21.8965 17.0581C21.8776 17.4928 21.8587 17.9842 21.8587 18.5638C21.8587 18.6898 21.8524 18.8242 21.8524 18.967C21.8314 19.7461 21.8062 20.6302 22.3564 20.9935C22.4282 21.0385 22.5111 21.0625 22.5958 21.0628C22.7869 21.0628 23.3623 21.0628 24.9205 18.3895C25.4011 17.5291 25.8187 16.6349 26.17 15.7141C26.2015 15.6595 26.2939 15.4915 26.4031 15.4264C26.4837 15.3854 26.5731 15.3645 26.6635 15.3655H30.4036C30.811 15.3655 31.0903 15.4264 31.1428 15.5839C31.2352 15.8338 31.126 16.5961 29.4187 18.9082L28.6564 19.9141C27.1087 21.9427 27.1087 22.0456 28.753 23.5849Z" fill="currentColor"/>
  </symbol>
  <symbol id="article-slider-arrow" viewBox="0 0 12 20">
    <path d="M11.67 1.8701L9.9 0.100098L0 10.0001L9.9 19.9001L11.67 18.1301L3.54 10.0001L11.67 1.8701Z" fill="currentColor"/>
  </symbol>
</svg>
