<svg width="108" height="108" viewBox="0 0 108 108" fill="none" xmlns="http://www.w3.org/2000/svg">
<path fill-rule="evenodd" clip-rule="evenodd" d="M29.0663 38.6032C26.5058 38.6032 24.4277 40.6813 24.4277 43.2418C24.4277 45.8022 26.5058 47.8803 29.0663 47.8803C31.6268 47.8803 33.7048 45.8022 33.7048 43.2418C33.7048 40.6813 31.6268 38.6032 29.0663 38.6032V38.6032ZM29.0663 41.6959C29.92 41.6959 30.6126 42.3886 30.6126 43.2418C30.6126 44.0954 29.92 44.7881 29.0663 44.7881C28.2131 44.7881 27.5204 44.0954 27.5204 43.2418C27.5204 42.3886 28.2131 41.6959 29.0663 41.6959Z" fill="white"/>
<path fill-rule="evenodd" clip-rule="evenodd" d="M41.4364 38.6032C38.8759 38.6032 36.7979 40.6813 36.7979 43.2418C36.7979 45.8022 38.8759 47.8803 41.4364 47.8803C43.9969 47.8803 46.0749 45.8022 46.0749 43.2418C46.0749 40.6813 43.9969 38.6032 41.4364 38.6032V38.6032ZM41.4364 41.6959C42.2896 41.6959 42.9822 42.3886 42.9822 43.2418C42.9822 44.0954 42.2895 44.7881 41.4364 44.7881C40.5827 44.7881 39.89 44.0954 39.89 43.2418C39.89 42.3886 40.5827 41.6959 41.4364 41.6959Z" fill="white"/>
<path fill-rule="evenodd" clip-rule="evenodd" d="M30.6124 26.2341V21.5956C30.6124 19.5455 31.4273 17.5787 32.8758 16.1282C34.3263 14.6797 36.2931 13.8649 38.3432 13.8649H69.2677C71.3178 13.8649 73.2845 14.6797 74.735 16.1282C76.1836 17.5787 76.9984 19.5455 76.9984 21.5956V26.2341H78.5447C81.1068 26.2341 83.1833 28.3106 83.1833 30.8727V32.5749C84.6566 32.8767 86.0234 33.603 87.1043 34.6824C88.5529 36.1329 89.3676 38.0997 89.3676 40.1498V64.8891C89.3676 66.9392 88.5528 68.9059 87.1043 70.3565C85.6538 71.805 83.687 72.6198 81.6369 72.6198H76.9984V77.2584C76.9984 79.3085 76.1835 81.2752 74.735 82.7257C73.2845 84.1743 71.3178 84.9891 69.2677 84.9891H38.3432C36.2931 84.9891 34.3263 84.1742 32.8758 82.7257C31.4272 81.2752 30.6124 79.3085 30.6124 77.2584V72.6198H25.9739C23.9238 72.6198 21.957 71.805 20.5065 70.3565C19.058 68.9059 18.2432 66.9392 18.2432 64.8891V40.1498C18.2432 38.0997 19.058 36.1329 20.5065 34.6824C21.5874 33.603 22.9542 32.8767 24.4275 32.5749V30.8727C24.4275 28.3106 26.504 26.2341 29.0661 26.2341H30.6124ZM73.9059 64.8891V77.2584C73.9059 78.4889 73.4172 79.6688 72.5464 80.5379C71.6777 81.4082 70.4979 81.8969 69.2674 81.8969H38.3429C37.1123 81.8969 35.9324 81.4082 35.0638 80.5379C34.1931 79.6687 33.7044 78.4889 33.7044 77.2584V64.8891C33.7044 63.658 34.1931 62.4782 35.0638 61.6095C35.9325 60.7387 37.1124 60.2505 38.3429 60.2505H69.2674C70.498 60.2505 71.6778 60.7387 72.5464 61.6095C73.4172 62.4782 73.9059 63.658 73.9059 64.8891V64.8891ZM76.9981 69.5276H81.6367C82.8672 69.5276 84.0471 69.0389 84.9162 68.1681C85.7865 67.2994 86.2752 66.1196 86.2752 64.8891V40.1498C86.2752 38.9192 85.7865 37.7393 84.9162 36.8702C84.047 35.9999 82.8672 35.5112 81.6367 35.5112H25.9742C24.7436 35.5112 23.5637 35.9999 22.6946 36.8702C21.8243 37.7394 21.3356 38.9192 21.3356 40.1498V64.8891C21.3356 66.1197 21.8243 67.2995 22.6946 68.1681C23.5638 69.0389 24.7436 69.5276 25.9742 69.5276H30.6127V64.8891C30.6127 62.8385 31.4275 60.8718 32.876 59.4217C34.3266 57.9726 36.2933 57.1578 38.3434 57.1578H69.2679C71.318 57.1578 73.2848 57.9727 74.7353 59.4217C76.1839 60.8717 76.9986 62.8385 76.9986 64.8891L76.9981 69.5276ZM30.6127 29.3261V32.4188H27.5205V30.8724C27.5205 30.0187 28.2132 29.3261 29.0663 29.3261H30.6127ZM73.9062 32.4188H33.7046V21.5953C33.7046 20.3648 34.1933 19.1849 35.0641 18.3157C35.9328 17.4455 37.1126 16.9568 38.3432 16.9568H69.2677C70.4982 16.9568 71.6781 17.4455 72.5467 18.3157C73.4175 19.185 73.9062 20.3648 73.9062 21.5953V32.4188ZM76.9984 29.3261H78.5447C79.3979 29.3261 80.0906 30.0187 80.0906 30.8724V32.4188H76.9984V29.3261Z" fill="white"/>
<path fill-rule="evenodd" clip-rule="evenodd" d="M41.436 75.7113H66.174C67.0277 75.7113 67.7204 75.0186 67.7204 74.1655C67.7204 73.3118 67.0277 72.6191 66.174 72.6191H41.436C40.5823 72.6191 39.8896 73.3118 39.8896 74.1655C39.8896 75.0187 40.5823 75.7113 41.436 75.7113V75.7113Z" fill="white"/>
<path fill-rule="evenodd" clip-rule="evenodd" d="M41.436 69.5277H66.174C67.0277 69.5277 67.7204 68.835 67.7204 67.9814C67.7204 67.1277 67.0277 66.435 66.174 66.435H41.436C40.5823 66.435 39.8896 67.1277 39.8896 67.9814C39.8896 68.835 40.5823 69.5277 41.436 69.5277V69.5277Z" fill="white"/>
</svg>
