<svg width="108" height="108" viewBox="0 0 108 108" fill="none" xmlns="http://www.w3.org/2000/svg">
<path d="M18.8996 19.8485C16.6793 19.8485 14.8496 21.6782 14.8496 23.8985V61.6985C14.8496 63.9188 16.6793 65.7485 18.8996 65.7485H78.2996C80.5199 65.7485 82.3496 63.9188 82.3496 61.6985V23.8985C82.3496 21.6782 80.5199 19.8485 78.2996 19.8485H18.8996ZM18.8996 22.5485H78.2996C79.071 22.5485 79.6496 23.1271 79.6496 23.8985V61.6985C79.6496 62.4699 79.071 63.0485 78.2996 63.0485H18.8996C18.1282 63.0485 17.5496 62.4699 17.5496 61.6985V23.8985C17.5496 23.1271 18.1282 22.5485 18.8996 22.5485Z" fill="white"/>
<path d="M16.1992 54.9485V57.6485H80.9992V54.9485H16.1992Z" fill="white"/>
<path d="M41.8914 64.0714L39.1914 74.8714L41.807 75.5253L44.507 64.7253L41.8914 64.0714Z" fill="white"/>
<path d="M52.6078 64.0714L49.9922 64.7253L52.6922 75.5253L55.3078 74.8714L52.6078 64.0714Z" fill="white"/>
<path d="M37.7992 73.8485C37.4412 73.8485 37.0977 73.9907 36.8446 74.2439C36.5915 74.497 36.4492 74.8405 36.4492 75.1985C36.4492 75.5565 36.5915 75.9 36.8446 76.1532C37.0977 76.4063 37.4412 76.5485 37.7992 76.5485H56.6992C57.0572 76.5485 57.4007 76.4063 57.6539 76.1532C57.907 75.9 58.0492 75.5565 58.0492 75.1985C58.0492 74.8405 57.907 74.497 57.6539 74.2439C57.4007 73.9907 57.0572 73.8485 56.6992 73.8485H37.7992Z" fill="white"/>
<path d="M72.8996 14.4485C70.6793 14.4485 68.8496 16.2782 68.8496 18.4985V21.1985C68.8496 21.5565 68.9918 21.9 69.245 22.1531C69.4981 22.4062 69.8416 22.5485 70.1996 22.5485C70.5576 22.5485 70.9011 22.4063 71.1543 22.1531C71.4074 21.9 71.5496 21.5565 71.5496 21.1985V18.4985C71.5496 17.7271 72.1282 17.1485 72.8996 17.1485H89.0996C89.871 17.1485 90.4496 17.7271 90.4496 18.4985V75.1985C90.4496 75.9699 89.871 76.5485 89.0996 76.5485H72.8996C72.1282 76.5485 71.5496 75.9699 71.5496 75.1985V64.3985C71.5496 64.0405 71.4074 63.697 71.1543 63.4438C70.9011 63.1907 70.5576 63.0485 70.1996 63.0485C69.8416 63.0485 69.4981 63.1907 69.245 63.4438C68.9918 63.697 68.8496 64.0405 68.8496 64.3985V75.1985C68.8496 77.4188 70.6793 79.2485 72.8996 79.2485H89.0996C91.3199 79.2485 93.1496 77.4188 93.1496 75.1985V18.4985C93.1496 16.2782 91.3199 14.4485 89.0996 14.4485H72.8996Z" fill="white"/>
<path d="M80.9992 65.7485C78.7783 65.7485 76.9492 67.5775 76.9492 69.7985C76.9492 72.0194 78.7783 73.8485 80.9992 73.8485C83.2202 73.8485 85.0492 72.0194 85.0492 69.7985C85.0492 67.5775 83.2202 65.7485 80.9992 65.7485ZM80.9992 68.4485C81.761 68.4485 82.3492 69.0367 82.3492 69.7985C82.3492 70.5603 81.761 71.1485 80.9992 71.1485C80.2374 71.1485 79.6492 70.5603 79.6492 69.7985C79.6492 69.0367 80.2374 68.4485 80.9992 68.4485Z" fill="white"/>
<path d="M81 25.2485V27.9485H85.05V30.6485H81V33.3485H86.4C87.1455 33.3485 87.75 32.744 87.75 31.9985V26.5985C87.75 25.853 87.1455 25.2485 86.4 25.2485H81Z" fill="white"/>
<path d="M81 36.0485V38.7485H91.8V36.0485H81Z" fill="white"/>
<path d="M80.9994 46.8485C80.6414 46.8485 80.2979 46.9907 80.0448 47.2439C79.7917 47.497 79.6494 47.8405 79.6494 48.1985C79.6494 48.5565 79.7916 48.9 80.0448 49.1532C80.2979 49.4063 80.6414 49.5485 80.9994 49.5485H86.3994C86.7574 49.5485 87.1009 49.4063 87.3541 49.1532C87.6072 48.9 87.7494 48.5565 87.7494 48.1985C87.7494 47.8405 87.6072 47.497 87.3541 47.2439C87.1009 46.9907 86.7574 46.8485 86.3994 46.8485H80.9994Z" fill="white"/>
<path d="M81 57.6485V60.3485H91.8V57.6485H81Z" fill="white"/>
</svg>
