<svg width="108" height="108" viewBox="0 0 108 108" fill="none" xmlns="http://www.w3.org/2000/svg">
<g clip-path="url(#clip0_1001_12962)">
<path d="M86.3212 20.4199C85.8365 20.313 85.3303 20.4612 84.9797 20.8124L77.367 28.4663L77.3676 28.4669C76.4717 29.3684 75.2534 29.8752 73.9826 29.8752C72.7118 29.8752 71.4936 29.3684 70.5976 28.4669C69.7012 27.5608 69.1984 26.3381 69.1984 25.0638C69.1984 23.789 69.7012 22.5662 70.5976 21.6607L78.0729 14.1448C78.4292 13.7867 78.5757 13.2698 78.4603 12.7783C78.3443 12.2863 77.9829 11.8892 77.5045 11.7275C75.5086 11.0652 73.3973 10.8209 71.3023 11.0098C66.7403 11.4368 62.5913 13.8298 59.9365 17.5637C57.2822 21.2983 56.3863 26.0039 57.4824 30.4528L49.4257 38.5535L38.2278 27.2957L38.1028 21.1947C38.0932 20.7146 37.8477 20.2694 37.4473 20.0047L24.0799 11.1857C23.5059 10.8056 22.7429 10.8843 22.2582 11.3735L15.7495 17.9172C15.2631 18.4075 15.1845 19.1711 15.5623 19.7502L24.3339 33.1894C24.5952 33.5904 25.0375 33.837 25.5159 33.8478L31.5795 33.9795L42.7774 45.238L35.1212 52.9355C32.3928 52.2579 29.5316 52.3337 26.8428 53.1543C23.8515 54.0813 21.2034 55.8765 19.2346 58.3118C17.2652 60.7472 16.065 63.7126 15.7852 66.8317C15.5968 68.9368 15.8395 71.0582 16.4984 73.0666C16.6545 73.5462 17.0492 73.9099 17.5396 74.027C18.03 74.144 18.5463 73.997 18.9015 73.6395L26.3762 66.1236C27.2726 65.2226 28.4908 64.7159 29.7612 64.7159C31.032 64.7159 32.2502 65.222 33.1462 66.123C34.0426 67.0291 34.5454 68.2518 34.5454 69.5261C34.5454 70.8004 34.0426 72.0231 33.1462 72.9292L25.5335 80.5831H25.5341C25.1829 80.9361 25.0358 81.4439 25.1427 81.9298C25.2502 82.4162 25.5974 82.8144 26.0646 82.9869C27.7653 83.6067 29.5615 83.9223 31.3714 83.9189C31.7345 83.9189 32.0993 83.9065 32.4669 83.8816C37.0791 83.523 41.3007 81.1544 44.0104 77.4052C46.7201 73.6555 47.6443 68.904 46.5374 64.4122L49.5978 61.3349L51.8256 63.5746H51.8251C52.4003 64.1216 53.3035 64.1216 53.8782 63.5746L54.3312 63.1188V63.1182C54.7186 62.7376 55.3413 62.7416 55.7242 63.1267C56.1071 63.5119 56.1077 64.134 55.7248 64.5197L55.2712 64.9762C54.705 65.5479 54.705 66.4688 55.2723 67.04L68.7771 80.6183C71.6248 83.4315 75.7552 84.5157 79.6181 83.4649C83.4805 82.414 86.4916 79.3865 87.5221 75.5179C88.552 71.6493 87.4452 67.5251 84.6162 64.6927L71.1114 51.1143C70.8399 50.8411 70.4706 50.6873 70.0854 50.6873C69.6997 50.6873 69.3304 50.8411 69.0589 51.1143L68.611 51.5651C68.2219 51.9395 67.6065 51.9395 67.2174 51.5656C66.8311 51.1782 66.8311 50.5515 67.2163 50.1641L67.6642 49.7134H67.6648C68.2315 49.1421 68.2315 48.2207 67.6648 47.6495L65.4398 45.4127L68.8972 41.9316V41.931C71.6686 42.6193 74.5762 42.5311 77.3011 41.6759C81.3834 40.3876 84.7651 37.4919 86.6649 33.6554C88.5652 29.8197 88.8203 25.3748 87.3713 21.3467C87.2027 20.8784 86.8068 20.5289 86.3216 20.4197L86.3212 20.4199ZM43.8882 62.9485C43.5076 63.3314 43.369 63.8924 43.5268 64.4088C44.8588 68.6201 43.9159 73.2216 41.0337 76.5693C38.1521 79.9175 33.7429 81.5351 29.3794 80.8444L35.1986 74.9924H35.1992C36.6391 73.5371 37.4473 71.5729 37.4473 69.5255C37.4473 67.478 36.6391 65.5132 35.1992 64.0586C33.7598 62.6118 31.8029 61.7986 29.7617 61.7986C27.721 61.7986 25.7642 62.6119 24.3247 64.0586L18.7142 69.7002C18.6135 68.8304 18.6011 67.9526 18.6769 67.0804C18.9059 64.541 19.8844 62.1265 21.4878 60.1448C23.0912 58.1625 25.2478 56.701 27.6831 55.9471C30.1112 55.2079 32.7044 55.2136 35.129 55.9629C35.642 56.1202 36.2002 55.9799 36.578 55.5987L44.8309 47.3011L51.1094 53.6129L47.5406 57.2015L47.5401 57.201C46.9734 57.7722 46.9734 58.694 47.5401 59.2653C47.5452 59.2704 43.8881 62.9485 43.8881 62.9485L43.8882 62.9485ZM67.9143 54.7736C68.6637 54.7753 69.3973 54.5581 70.0251 54.1486L82.565 66.7565C84.6724 68.8526 85.5009 71.914 84.7397 74.7871C83.9779 77.6603 81.741 79.9084 78.8719 80.6855C76.0034 81.4621 72.9373 80.6493 70.8299 78.5532L58.2922 65.9477C58.9477 64.9427 59.1043 63.6916 58.7164 62.5559C58.3284 61.4202 57.4393 60.526 56.3059 60.1324C55.1725 59.7382 53.9208 59.8881 52.912 60.5385L50.6197 58.2332L54.1884 54.6446C54.7557 54.0734 54.7557 53.152 54.1884 52.5808L33.2202 31.5011C32.9561 31.2353 32.5998 31.0821 32.2254 31.0741L26.3422 30.9463L18.6379 19.1416L23.4758 14.277L35.2161 22.0232L35.3383 27.9431C35.3462 28.3192 35.4983 28.6778 35.7636 28.9448L56.7318 50.0259C57.0027 50.2996 57.372 50.4535 57.7577 50.4535C58.1429 50.4535 58.5122 50.2996 58.7837 50.0259L62.353 46.4373L64.6459 48.7432L64.6464 48.7427C64.164 49.4949 63.9525 50.389 64.0469 51.277C64.1414 52.1655 64.5356 52.9952 65.1645 53.6298C65.8901 54.3645 66.8805 54.7768 67.9137 54.7746L67.9143 54.7736ZM85.3656 27.581C85.1779 30.1414 84.2271 32.5869 82.6361 34.602C81.0458 36.6172 78.888 38.1102 76.4413 38.888C73.9862 39.6601 71.3539 39.6651 68.8954 38.9022C68.3813 38.7444 67.8214 38.8841 67.4419 39.2664L63.3878 43.3487C63.1169 43.0721 62.7465 42.9155 62.3596 42.9143C61.9728 42.9126 61.6012 43.0665 61.328 43.3408L57.7587 46.9294L51.4797 40.6169L60.1331 31.9166C60.5126 31.5343 60.6517 30.9743 60.495 30.4591C59.1993 26.3304 60.0822 21.8267 62.8416 18.4937C65.6005 15.1607 69.8599 13.4522 74.1577 13.9549L68.5471 19.5966C67.1066 21.0513 66.2984 23.016 66.2984 25.0635C66.2984 27.1109 67.1066 29.0751 68.5471 30.5304C69.9854 31.9788 71.9423 32.7939 73.9841 32.7939C76.0259 32.7939 77.9827 31.9789 79.421 30.5304L85.2413 24.6789V24.6784C85.3901 25.6381 85.4319 26.6116 85.3658 27.5809L85.3656 27.581Z" fill="white"/>
</g>
<defs>
<clipPath id="clip0_1001_12962">
<rect width="108" height="108" fill="white"/>
</clipPath>
</defs>
</svg>
