<svg width="108" height="108" viewBox="0 0 108 108" fill="none" xmlns="http://www.w3.org/2000/svg">
<path d="M53.638 82.7014H22.0412C20.1907 82.7014 18.5103 81.9462 17.2946 80.731C16.079 79.5154 15.3242 77.8355 15.3242 75.9844V52.8875C15.3242 51.037 16.0795 49.3566 17.2946 48.1409C18.0186 47.4146 18.9104 46.8533 19.9025 46.5206L26.9332 32.4252V24.0301C26.9332 23.0374 27.7363 22.2348 28.7285 22.2348H31.7372V14.9304C31.7372 13.9378 32.5403 13.1351 33.5325 13.1351H73.7376C74.7303 13.1351 75.5329 13.9383 75.5329 14.9304V22.2348H78.5416C79.5343 22.2348 80.3369 23.0379 80.3369 24.0301V32.4252L87.3676 46.5206C88.3602 46.854 89.2515 47.4175 89.9755 48.1409C91.1911 49.3565 91.9458 51.0364 91.9458 52.8875V75.9844C91.9458 77.8349 91.1906 79.5153 89.9755 80.731C88.7598 81.9467 87.0799 82.7014 85.2288 82.7014H53.632H53.638ZM38.6387 44.5267C37.646 44.5267 36.8434 43.7236 36.8434 42.7314C36.8434 41.7388 37.6466 40.9361 38.6387 40.9361H58.8204C59.8131 40.9361 60.6157 41.7393 60.6157 42.7314C60.6157 43.7241 59.8126 44.5267 58.8204 44.5267H38.6387ZM38.6387 34.4371C37.646 34.4371 36.8434 33.634 36.8434 32.6418C36.8434 31.6492 37.6466 30.8465 38.6387 30.8465H68.6374C69.63 30.8465 70.4327 31.6497 70.4327 32.6418C70.4327 33.6345 69.6295 34.4371 68.6374 34.4371H38.6387ZM24.0874 46.1738H26.9327V40.4685L24.0874 46.1738ZM80.342 40.4685V46.1738H83.1874L80.342 40.4685ZM35.3326 22.2359H71.9449V16.7274H35.3326V22.2359ZM30.5263 46.1746H34.9897C35.9964 46.1746 36.9456 46.3809 37.8184 46.7833C38.6884 47.1885 39.4604 47.7804 40.1148 48.5523L43.2021 52.1987C43.5159 52.5677 43.8732 52.8458 44.2639 53.0281C44.6546 53.2081 45.0983 53.3012 45.5894 53.3012H61.6917C62.1833 53.3012 62.6292 53.2076 63.0171 53.0281C63.4078 52.8458 63.7651 52.5677 64.0789 52.1987L67.1663 48.5523C67.8206 47.7804 68.5926 47.1862 69.4627 46.7833C70.3327 46.3803 71.2819 46.1746 72.2892 46.1746H76.7526V25.8302H30.5289V46.1746H30.5263ZM40.194 62.1157H67.0835C68.0762 62.1157 68.8788 62.9189 68.8788 63.911V71.9082C68.8788 72.9009 68.0756 73.7035 67.0835 73.7035H40.194C39.2013 73.7035 38.3987 72.9004 38.3987 71.9082V63.911C38.3987 62.9183 39.2019 62.1157 40.194 62.1157ZM65.2856 65.7069H41.989V70.1106H65.2856V65.7069ZM22.0384 79.1145H85.2348C86.0932 79.1145 86.8746 78.7645 87.4426 78.1965C88.0083 77.6308 88.3606 76.8494 88.3606 75.9887V52.8919C88.3606 52.0335 88.0106 51.2521 87.4426 50.6863C86.8746 50.1184 86.0954 49.7683 85.2348 49.7683H72.2848C71.7931 49.7683 71.3473 49.862 70.9593 50.0415C70.5686 50.2237 70.2113 50.5018 69.8975 50.8708L66.8102 54.5172C66.1558 55.2892 65.3839 55.8833 64.5138 56.2863C63.6437 56.6915 62.6945 56.8977 61.6851 56.8977H45.5828C44.5762 56.8977 43.627 56.6915 42.7542 56.2863C41.8841 55.8833 41.1121 55.2891 40.4577 54.5172L37.3704 50.8708C37.0566 50.5018 36.6993 50.2237 36.3086 50.0415C35.9179 49.8614 35.4742 49.7683 34.9832 49.7683H22.0331C21.1725 49.7683 20.3933 50.1184 19.8253 50.6863C19.2596 51.2521 18.9073 52.0335 18.9073 52.8919V75.9887C18.9073 76.8493 19.2573 77.6308 19.8253 78.1965C20.3933 78.7645 21.1747 79.1145 22.0331 79.1145H22.0384Z" fill="white"/>
</svg>
