<svg width="125" height="35" viewBox="0 0 125 35" fill="none" xmlns="http://www.w3.org/2000/svg">
<path d="M14.199 28.767C22.0409 28.767 28.398 22.3273 28.398 14.3835C28.398 6.43972 22.0409 0 14.199 0C6.3571 0 0 6.43972 0 14.3835C0 22.3273 6.3571 28.767 14.199 28.767Z" fill="white"/>
<path d="M27.7433 23.437C27.7433 23.5123 27.7274 23.5779 27.6951 23.6344C27.6627 23.6909 27.5938 23.7376 27.4871 23.7753C27.3804 23.8129 27.231 23.8408 27.0396 23.8597C26.8475 23.8785 26.592 23.8876 26.2719 23.8876C25.9944 23.8876 25.7678 23.8778 25.5923 23.8597C25.4167 23.8408 25.2748 23.8101 25.1688 23.7683C25.0621 23.7257 24.9795 23.6672 24.9209 23.5918C24.8624 23.5165 24.8115 23.423 24.7688 23.31L22.8657 19.0108C22.6419 18.5225 22.4098 18.0733 22.1702 17.6646C21.9306 17.2559 21.6449 16.9037 21.3151 16.6072C20.9846 16.3115 20.5956 16.0813 20.148 15.9167C19.7005 15.7521 19.162 15.6698 18.5327 15.6698H16.6936V23.437C16.6936 23.5123 16.6695 23.5779 16.622 23.6344C16.5745 23.6909 16.4994 23.7355 16.3982 23.7683C16.297 23.8011 16.1586 23.8297 15.9824 23.8527C15.8068 23.8757 15.5851 23.8876 15.3186 23.8876C15.0521 23.8876 14.8311 23.8757 14.6549 23.8527C14.4793 23.829 14.3374 23.8011 14.2314 23.7683C14.1247 23.7355 14.0503 23.6909 14.0076 23.6344C13.9649 23.5779 13.9436 23.5123 13.9436 23.437V6.55021C13.9436 6.18403 14.0531 5.92805 14.2713 5.78228C14.4896 5.6365 14.7216 5.56396 14.9668 5.56396H19.3645C19.8864 5.56396 20.3215 5.57582 20.6679 5.59884C21.0142 5.62255 21.3261 5.64836 21.6036 5.67626C22.403 5.79832 23.1094 5.99152 23.7222 6.25448C24.335 6.51743 24.8493 6.85152 25.2652 7.25536C25.6811 7.65921 25.993 8.12234 26.2009 8.64406C26.4089 9.16577 26.5128 9.74119 26.5128 10.371C26.5128 10.982 26.4192 11.5295 26.2333 12.0129C26.0467 12.497 25.7775 12.9245 25.4256 13.2956C25.0738 13.6666 24.6524 13.9889 24.1622 14.2609C23.6719 14.5336 23.1225 14.7638 22.5152 14.9514C22.856 15.0832 23.1652 15.2499 23.4427 15.4515C23.7194 15.6538 23.9783 15.8958 24.2179 16.1776C24.4576 16.4594 24.6841 16.7837 24.8975 17.1506C25.111 17.5167 25.3237 17.9304 25.5372 18.3907L27.3921 22.4082C27.5415 22.7465 27.6372 22.9836 27.6799 23.1203C27.7219 23.2563 27.7433 23.3617 27.7433 23.437ZM23.6017 10.6242C23.6017 9.90999 23.4206 9.30597 23.0578 8.81285C22.6949 8.31972 22.0876 7.9647 21.2345 7.74848C20.9681 7.68292 20.6672 7.63549 20.3312 7.60759C19.9951 7.57969 19.5559 7.56505 19.0119 7.56505H16.6929V13.7106H19.3796C20.1046 13.7106 20.7305 13.6332 21.2586 13.4783C21.7867 13.3235 22.226 13.1073 22.5779 12.8297C22.9297 12.5528 23.1879 12.2256 23.3531 11.8497C23.5191 11.4744 23.6017 11.0657 23.6017 10.6242Z" fill="#23252B"/>
<path d="M43.2381 22.803C43.2381 22.9718 43.2271 23.1203 43.2064 23.2473C43.1851 23.3742 43.1479 23.4795 43.0942 23.5646C43.0405 23.649 42.9792 23.7104 42.9104 23.7481C42.8408 23.7857 42.7637 23.8046 42.6783 23.8046H32.7483C32.5031 23.8046 32.2711 23.732 32.0528 23.5863C31.8339 23.4405 31.7251 23.1845 31.7251 22.8183V6.55021C31.7251 6.18403 31.8346 5.92805 32.0528 5.78228C32.2711 5.6365 32.5031 5.56396 32.7483 5.56396H42.5668C42.6522 5.56396 42.7293 5.5828 42.7988 5.62046C42.8677 5.65812 42.9241 5.71881 42.9668 5.8039C43.0095 5.8883 43.0439 5.99431 43.0708 6.12125C43.0969 6.2482 43.1107 6.40583 43.1107 6.59345C43.1107 6.76224 43.0969 6.91081 43.0708 7.03775C43.0439 7.16469 43.0095 7.26792 42.9668 7.34813C42.9241 7.42834 42.8684 7.48693 42.7988 7.52459C42.7293 7.56226 42.6522 7.58109 42.5668 7.58109H34.4751V13.3039H41.4149C41.5002 13.3039 41.5773 13.3249 41.6469 13.3674C41.7164 13.41 41.775 13.4686 41.8225 13.5439C41.8707 13.6192 41.9051 13.7224 41.9264 13.8543C41.9478 13.9861 41.9581 14.1409 41.9581 14.3195C41.9581 14.4883 41.9471 14.634 41.9264 14.7561C41.9051 14.8782 41.8707 14.9772 41.8225 15.0518C41.7743 15.1272 41.7157 15.1809 41.6469 15.2137C41.5773 15.2464 41.5002 15.2632 41.4149 15.2632H34.4751V21.7895H42.6783C42.7637 21.7895 42.8408 21.8084 42.9104 21.846C42.9799 21.8837 43.0405 21.9423 43.0942 22.0225C43.1472 22.1027 43.1844 22.2059 43.2064 22.3329C43.2278 22.4577 43.2381 22.6147 43.2381 22.803Z" fill="white"/>
<path d="M58.5098 18.687C58.5098 19.5421 58.3314 20.303 57.9741 20.9705C57.6167 21.638 57.121 22.2037 56.4868 22.6689C55.8527 23.1341 55.1063 23.4843 54.2484 23.7193C53.3898 23.9544 52.4651 24.0715 51.4743 24.0715C50.7809 24.0715 50.1392 24.0199 49.5471 23.9167C48.9556 23.8135 48.4275 23.6865 47.9642 23.5359C47.5001 23.3859 47.1111 23.2304 46.7971 23.0707C46.4824 22.9109 46.2642 22.7749 46.1416 22.6619C46.019 22.5489 45.9281 22.406 45.8696 22.2323C45.8111 22.0586 45.7815 21.8256 45.7815 21.5348C45.7815 21.3283 45.7918 21.1568 45.8132 21.0201C45.8345 20.884 45.8662 20.7731 45.9089 20.6887C45.9516 20.6044 46.0046 20.5458 46.0686 20.5123C46.1326 20.4795 46.207 20.4628 46.2924 20.4628C46.4418 20.4628 46.6525 20.543 46.9238 20.7027C47.1957 20.8624 47.5448 21.0361 47.971 21.2244C48.3972 21.4127 48.9116 21.5885 49.514 21.7531C50.1165 21.9177 50.8119 22 51.601 22C52.1979 22 52.7447 21.9296 53.2404 21.7887C53.7361 21.6478 54.1623 21.4483 54.5197 21.1895C54.877 20.9315 55.1511 20.6141 55.3432 20.2382C55.5353 19.8622 55.631 19.4347 55.631 18.9555C55.631 18.4387 55.4974 17.9972 55.231 17.6303C54.9645 17.2641 54.6126 16.9419 54.1754 16.665C53.7382 16.3881 53.2397 16.1342 52.6806 15.904C52.1208 15.6738 51.548 15.4388 50.9613 15.1995C50.3747 14.9596 49.8046 14.6946 49.2503 14.403C48.6961 14.1122 48.2003 13.769 47.7631 13.3742C47.3259 12.9795 46.9713 12.517 46.7 11.9855C46.428 11.4548 46.2924 10.818 46.2924 10.0758C46.2924 9.31487 46.4494 8.63552 46.764 8.03917C47.078 7.44282 47.5159 6.94203 48.075 6.53819C48.6348 6.13435 49.3006 5.82606 50.0738 5.61472C50.8464 5.40338 51.6809 5.29736 52.5766 5.29736C53.0352 5.29736 53.4958 5.33224 53.9599 5.40338C54.424 5.47383 54.8605 5.56799 55.2709 5.68516C55.6813 5.80304 56.0462 5.93417 56.3663 6.07994C56.6858 6.22572 56.8965 6.34289 56.9977 6.43217C57.0989 6.52145 57.1657 6.59189 57.1974 6.64351C57.2291 6.69512 57.2559 6.76138 57.2773 6.8409C57.2986 6.92111 57.3145 7.01736 57.3255 7.12966C57.3358 7.24265 57.3413 7.38842 57.3413 7.56628C57.3413 7.73577 57.333 7.88573 57.3172 8.01755C57.3014 8.14938 57.2773 8.25958 57.2456 8.34886C57.2139 8.43813 57.1678 8.5037 57.11 8.54625C57.0514 8.58879 56.9847 8.60971 56.9103 8.60971C56.7926 8.60971 56.6087 8.54415 56.3588 8.41233C56.1081 8.28051 55.8017 8.13264 55.4396 7.96803C55.0767 7.80343 54.6478 7.65347 54.152 7.51676C53.6563 7.38075 53.0992 7.3124 52.4809 7.3124C51.9053 7.3124 51.4041 7.38075 50.9779 7.51676C50.5517 7.65277 50.1998 7.83412 49.9223 8.0594C49.6449 8.28469 49.4369 8.55252 49.2985 8.8629C49.1601 9.17328 49.0906 9.5018 49.0906 9.84984C49.0906 10.3576 49.2235 10.7942 49.4906 11.1604C49.7571 11.5266 50.1117 11.8509 50.5537 12.1327C50.9958 12.4145 51.4998 12.6733 52.0651 12.9083C52.6304 13.1434 53.206 13.3805 53.7919 13.6204C54.3779 13.8604 54.9535 14.1233 55.5188 14.41C56.0834 14.6967 56.5874 15.0349 57.0301 15.4248C57.4721 15.8147 57.8295 16.2758 58.1015 16.8066C58.3734 17.3359 58.5098 17.963 58.5098 18.687Z" fill="white"/>
<path d="M75.1884 6.60615C75.1884 6.7847 75.1774 6.93954 75.1568 7.07137C75.1354 7.20319 75.101 7.30851 75.0528 7.38872C75.0046 7.46893 74.9461 7.52752 74.8772 7.56519C74.8077 7.60285 74.7306 7.62168 74.6452 7.62168H68.8243V23.4371C68.8243 23.5124 68.803 23.578 68.7603 23.6345C68.7176 23.691 68.6425 23.7356 68.5365 23.7684C68.4298 23.8012 68.2886 23.8298 68.113 23.8528C67.9375 23.8758 67.7158 23.8877 67.4493 23.8877C67.1932 23.8877 66.9749 23.8758 66.7938 23.8528C66.6127 23.8291 66.4688 23.8012 66.3621 23.7684C66.2554 23.7356 66.181 23.691 66.1383 23.6345C66.0956 23.578 66.0743 23.5124 66.0743 23.4371V7.62098H60.2534C60.168 7.62098 60.0909 7.60215 60.0214 7.56449C59.9518 7.52682 59.8961 7.46824 59.8534 7.38803C59.8107 7.30851 59.7756 7.20249 59.7494 7.07067C59.7226 6.93884 59.7095 6.784 59.7095 6.60545C59.7095 6.42689 59.7226 6.26926 59.7494 6.13325C59.7756 5.99724 59.8107 5.88634 59.8534 5.80195C59.8961 5.71755 59.9518 5.65617 60.0214 5.61851C60.0909 5.58084 60.168 5.56201 60.2534 5.56201H74.6452C74.7306 5.56201 74.8077 5.58084 74.8772 5.61851C74.9461 5.65617 75.0053 5.71685 75.0528 5.80195C75.101 5.88634 75.1354 5.99724 75.1568 6.13325C75.1774 6.26996 75.1884 6.42759 75.1884 6.60615Z" fill="white"/>
<path d="M91.1149 22.944C91.2003 23.1505 91.245 23.3179 91.2506 23.4441C91.2561 23.571 91.2161 23.6673 91.1308 23.7329C91.0454 23.7984 90.9042 23.841 90.7073 23.8598C90.5097 23.8786 90.246 23.8877 89.9155 23.8877C89.585 23.8877 89.3213 23.8807 89.1237 23.8668C88.9261 23.8528 88.7773 23.8291 88.6761 23.7963C88.5749 23.7635 88.5005 23.7189 88.4523 23.6624C88.4041 23.6059 88.3587 23.5355 88.3167 23.4511L86.5417 19.0109H77.9384L76.2432 23.3946C76.2116 23.479 76.1689 23.5522 76.1152 23.6129C76.0615 23.6743 75.9843 23.7259 75.8831 23.7677C75.7819 23.8103 75.638 23.8403 75.4514 23.8591C75.2648 23.8779 75.0225 23.887 74.7236 23.887C74.4145 23.887 74.1611 23.8751 73.9642 23.8521C73.7666 23.8284 73.6282 23.7838 73.5483 23.7182C73.4684 23.6526 73.4306 23.5564 73.4361 23.4294C73.4416 23.3025 73.4863 23.1358 73.5717 22.9294L80.5115 5.98607C80.5541 5.88284 80.6099 5.79845 80.6795 5.73219C80.749 5.66663 80.8495 5.61501 80.9831 5.57735C81.116 5.53968 81.2868 5.51388 81.4947 5.49993C81.7026 5.48598 81.9663 5.479 82.2865 5.479C82.6273 5.479 82.9103 5.48598 83.1341 5.49993C83.3579 5.51388 83.539 5.53968 83.678 5.57735C83.8164 5.61501 83.9232 5.66872 83.9982 5.73916C84.0726 5.80961 84.1311 5.89679 84.1738 6.00002L91.1149 22.944ZM82.208 7.98785H82.1922L78.6262 17.0796H85.8221L82.208 7.98785Z" fill="white"/>
<path d="M108.369 23.437C108.369 23.5123 108.353 23.5779 108.321 23.6344C108.289 23.6909 108.22 23.7376 108.113 23.7753C108.006 23.8129 107.857 23.8408 107.665 23.8597C107.473 23.8785 107.218 23.8876 106.898 23.8876C106.62 23.8876 106.394 23.8778 106.218 23.8597C106.042 23.8408 105.901 23.8101 105.795 23.7683C105.688 23.7257 105.605 23.6672 105.547 23.5918C105.488 23.5165 105.437 23.423 105.394 23.31L103.491 19.0108C103.268 18.5225 103.036 18.0733 102.796 17.6646C102.556 17.2559 102.271 16.9037 101.941 16.6072C101.61 16.3115 101.221 16.0813 100.774 15.9167C100.326 15.7521 99.7877 15.6698 99.1584 15.6698H97.3193V23.437C97.3193 23.5123 97.2952 23.5779 97.2477 23.6344C97.1995 23.6909 97.1251 23.7355 97.0239 23.7683C96.9227 23.8011 96.7843 23.8297 96.608 23.8527C96.4325 23.8757 96.2108 23.8876 95.9443 23.8876C95.6778 23.8876 95.4568 23.8757 95.2805 23.8527C95.105 23.829 94.9631 23.8011 94.8564 23.7683C94.7497 23.7355 94.6753 23.6909 94.6326 23.6344C94.59 23.5779 94.5686 23.5123 94.5686 23.437V6.55021C94.5686 6.18403 94.6781 5.92805 94.8963 5.78228C95.1146 5.6365 95.3466 5.56396 95.5918 5.56396H99.9895C100.511 5.56396 100.946 5.57582 101.293 5.59884C101.639 5.62255 101.951 5.64836 102.229 5.67626C103.028 5.79832 103.734 5.99152 104.347 6.25448C104.96 6.51743 105.474 6.85152 105.89 7.25536C106.306 7.65921 106.618 8.12234 106.826 8.64406C107.034 9.16577 107.138 9.74119 107.138 10.371C107.138 10.982 107.044 11.5295 106.858 12.0129C106.672 12.497 106.402 12.9245 106.051 13.2956C105.699 13.6666 105.277 13.9889 104.787 14.2609C104.297 14.5336 103.747 14.7638 103.14 14.9514C103.481 15.0832 103.79 15.2499 104.068 15.4515C104.344 15.6538 104.603 15.8958 104.843 16.1776C105.083 16.4594 105.309 16.7837 105.523 17.1506C105.736 17.5167 105.949 17.9304 106.162 18.3907L108.017 22.4082C108.167 22.7465 108.262 22.9836 108.305 23.1203C108.348 23.2563 108.369 23.3617 108.369 23.437ZM104.227 10.6242C104.227 9.90999 104.046 9.30597 103.683 8.81285C103.321 8.31972 102.713 7.9647 101.86 7.74848C101.594 7.68292 101.292 7.63549 100.957 7.60759C100.622 7.57969 100.182 7.56505 99.6376 7.56505H97.3186V13.7106H100.005C100.73 13.7106 101.357 13.6332 101.884 13.4783C102.412 13.3235 102.852 13.1073 103.204 12.8297C103.555 12.5528 103.814 12.2256 103.979 11.8497C104.145 11.4744 104.227 11.0657 104.227 10.6242Z" fill="white"/>
<path d="M125 6.60615C125 6.7847 124.989 6.93954 124.968 7.07137C124.947 7.20319 124.913 7.30851 124.864 7.38872C124.816 7.46893 124.758 7.52752 124.689 7.56519C124.619 7.60285 124.542 7.62168 124.457 7.62168H118.636V23.4371C118.636 23.5124 118.614 23.578 118.572 23.6345C118.529 23.691 118.454 23.7356 118.348 23.7684C118.241 23.8012 118.1 23.8298 117.925 23.8528C117.749 23.8758 117.527 23.8877 117.261 23.8877C117.005 23.8877 116.786 23.8758 116.605 23.8528C116.424 23.8291 116.28 23.8012 116.174 23.7684C116.067 23.7356 115.993 23.691 115.95 23.6345C115.907 23.578 115.886 23.5124 115.886 23.4371V7.62098H110.065C109.98 7.62098 109.902 7.60215 109.833 7.56449C109.763 7.52682 109.708 7.46824 109.665 7.38803C109.622 7.30851 109.587 7.20249 109.561 7.07067C109.534 6.93884 109.521 6.784 109.521 6.60545C109.521 6.42689 109.534 6.26926 109.561 6.13325C109.587 5.99724 109.622 5.88634 109.665 5.80195C109.708 5.71755 109.763 5.65617 109.833 5.61851C109.902 5.58084 109.98 5.56201 110.065 5.56201H124.457C124.542 5.56201 124.619 5.58084 124.689 5.61851C124.758 5.65617 124.817 5.71685 124.864 5.80195C124.913 5.88634 124.947 5.99724 124.968 6.13325C124.989 6.26996 125 6.42759 125 6.60615Z" fill="white"/>
<path d="M6.87505 33.5096C6.87505 33.5243 6.86885 33.5355 6.85646 33.5431C6.84407 33.5508 6.82754 33.5571 6.80757 33.5606C6.78761 33.5641 6.76007 33.5661 6.72633 33.5661C6.69397 33.5661 6.66642 33.5641 6.64301 33.5606C6.6196 33.5571 6.60239 33.5515 6.59 33.5431C6.5776 33.5355 6.57141 33.5236 6.57141 33.5096V33.2899C6.45505 33.3855 6.32698 33.4594 6.18652 33.5117C6.04606 33.5641 5.90078 33.5899 5.74999 33.5899C5.61435 33.5899 5.49316 33.5766 5.38506 33.5494C5.27697 33.5229 5.18608 33.4838 5.11172 33.4343C5.03736 33.3841 4.98021 33.3241 4.94027 33.253C4.90034 33.1818 4.88037 33.1023 4.88037 33.0137C4.88037 32.9049 4.90998 32.8101 4.96919 32.7299C5.0284 32.6497 5.11241 32.582 5.22119 32.5283C5.32998 32.4746 5.4608 32.4341 5.61297 32.4076C5.76582 32.3811 5.9352 32.3672 6.12248 32.3672H6.53492V32.1977C6.53492 32.1133 6.52321 32.0394 6.50049 31.9745C6.47777 31.9096 6.44058 31.8559 6.38894 31.8127C6.3373 31.7694 6.27052 31.7367 6.18858 31.715C6.10665 31.6934 6.00612 31.6823 5.88838 31.6823C5.77409 31.6823 5.67081 31.6927 5.57923 31.7136C5.48766 31.7346 5.40779 31.7583 5.33893 31.7841C5.27008 31.8099 5.21362 31.8336 5.16886 31.8545C5.12411 31.8755 5.09175 31.8859 5.07316 31.8859C5.06145 31.8859 5.05113 31.8845 5.04149 31.8817C5.03185 31.8789 5.02359 31.8734 5.01739 31.8657C5.0105 31.858 5.00568 31.8476 5.00293 31.835C5.00018 31.8224 4.9988 31.8078 4.9988 31.7904C4.9988 31.7597 5.00155 31.7353 5.00775 31.7178C5.01326 31.6997 5.02841 31.6816 5.05182 31.6634C5.07591 31.6453 5.11791 31.6237 5.17919 31.5993C5.24047 31.5748 5.31002 31.5518 5.38989 31.5309C5.46907 31.51 5.55444 31.4925 5.64602 31.48C5.73759 31.4667 5.82917 31.4604 5.92074 31.4604C6.09838 31.4604 6.2478 31.4765 6.37036 31.5093C6.49223 31.5421 6.59137 31.5888 6.66642 31.6495C6.74147 31.7101 6.79587 31.7855 6.82823 31.8748C6.86059 31.964 6.87712 32.0652 6.87712 32.1782V33.5096H6.87505ZM6.53492 32.5806H6.06258C5.92487 32.5806 5.80507 32.5904 5.70179 32.6092C5.59851 32.628 5.51313 32.6559 5.44428 32.6922C5.37542 32.7285 5.32447 32.7717 5.29142 32.8226C5.25837 32.8735 5.24116 32.9314 5.24116 32.997C5.24116 33.11 5.28867 33.2007 5.383 33.2676C5.47733 33.3353 5.61021 33.3688 5.78235 33.3688C5.91799 33.3688 6.04399 33.3423 6.16173 33.2892C6.27878 33.2362 6.40341 33.1546 6.53492 33.0444V32.5806Z" fill="white"/>
<path d="M10.7307 31.6128C10.7307 31.6316 10.7286 31.6484 10.7252 31.663C10.721 31.6777 10.7155 31.6895 10.7079 31.7C10.7004 31.7104 10.6914 31.7174 10.6825 31.723C10.6728 31.7279 10.6611 31.7307 10.648 31.7307H9.60352V33.5106C9.60352 33.5197 9.60077 33.5274 9.59526 33.5344C9.58975 33.5413 9.58011 33.5476 9.56772 33.5518C9.55533 33.556 9.53811 33.5595 9.51608 33.563C9.49404 33.5657 9.46582 33.5671 9.43139 33.5671C9.39903 33.5671 9.37148 33.5657 9.35014 33.563C9.32811 33.5602 9.3102 33.5567 9.29712 33.5518C9.28404 33.5476 9.2744 33.542 9.26958 33.5344C9.26476 33.5274 9.2627 33.519 9.2627 33.5106V31.5981C9.2627 31.5633 9.2744 31.5375 9.29712 31.5207C9.31984 31.504 9.34739 31.4956 9.38044 31.4956H10.6487C10.6618 31.4956 10.6735 31.4984 10.6832 31.5047C10.6928 31.5103 10.7011 31.5186 10.7086 31.5284C10.7162 31.5382 10.7217 31.5507 10.7258 31.5654C10.7286 31.5793 10.7307 31.5953 10.7307 31.6128Z" fill="white"/>
<path d="M14.7597 32.4244C14.7597 32.4767 14.7418 32.5123 14.7053 32.5318C14.6688 32.5513 14.6337 32.5611 14.5993 32.5611H12.8332C12.8332 32.6831 12.849 32.7933 12.8807 32.8917C12.9124 32.99 12.964 33.0751 13.037 33.1449C13.11 33.2146 13.2036 33.269 13.3207 33.3067C13.437 33.3443 13.5802 33.3632 13.7496 33.3632C13.8701 33.3632 13.9775 33.3555 14.0732 33.3395C14.1689 33.3234 14.2509 33.306 14.3211 33.2865C14.3907 33.2669 14.4478 33.2488 14.4926 33.2335C14.5373 33.2174 14.569 33.2097 14.5883 33.2097C14.6 33.2097 14.6103 33.2118 14.6199 33.216C14.6296 33.2202 14.6371 33.2272 14.6427 33.2369C14.6482 33.246 14.653 33.2586 14.6557 33.2725C14.6585 33.2865 14.6599 33.3053 14.6599 33.3269C14.6599 33.3374 14.6592 33.3471 14.6571 33.3562C14.6551 33.366 14.653 33.3743 14.6502 33.3827C14.6475 33.3911 14.6433 33.3981 14.6372 33.4057C14.6316 33.4127 14.6241 33.4204 14.6144 33.4274C14.6048 33.4343 14.5752 33.4476 14.5256 33.4657C14.476 33.4838 14.4113 33.502 14.3308 33.5201C14.2509 33.5382 14.1572 33.5543 14.0519 33.5689C13.9459 33.5836 13.8322 33.5906 13.7097 33.5906C13.5093 33.5906 13.3317 33.5675 13.1775 33.5222C13.0232 33.4769 12.8931 33.4092 12.7884 33.3199C12.6838 33.2307 12.6039 33.1205 12.5495 32.9879C12.4951 32.8561 12.4683 32.7027 12.4683 32.529C12.4683 32.3623 12.4965 32.213 12.553 32.0805C12.6094 31.948 12.69 31.8364 12.7946 31.7443C12.8993 31.6523 13.026 31.5818 13.174 31.533C13.322 31.4842 13.4866 31.4604 13.6677 31.4604C13.8625 31.4604 14.0285 31.4849 14.1655 31.5344C14.3032 31.5839 14.4161 31.6502 14.5049 31.7332C14.5938 31.8169 14.6585 31.9131 14.6998 32.024C14.7411 32.1342 14.7611 32.25 14.7611 32.3721V32.4244H14.7597ZM14.4079 32.3483C14.4134 32.1391 14.3507 31.9766 14.2192 31.8587C14.0877 31.7408 13.8956 31.6823 13.6443 31.6823C13.5141 31.6823 13.4005 31.7004 13.3021 31.7374C13.2036 31.7743 13.121 31.8231 13.0528 31.8845C12.9854 31.9452 12.933 32.0163 12.8965 32.0966C12.86 32.1768 12.8394 32.2605 12.8339 32.3476H14.4079V32.3483Z" fill="white"/>
<path d="M19.1297 33.5096C19.1297 33.5187 19.1269 33.5263 19.1214 33.5333C19.1159 33.5403 19.1063 33.5466 19.0939 33.5507C19.0815 33.5549 19.0643 33.5584 19.0423 33.5619C19.0202 33.5647 18.9934 33.5661 18.961 33.5661C18.9266 33.5661 18.8984 33.5647 18.8763 33.5619C18.8543 33.5591 18.8371 33.5556 18.8247 33.5507C18.8123 33.5466 18.8033 33.541 18.7971 33.5333C18.7916 33.5263 18.7889 33.518 18.7889 33.5096V32.598H17.3264V33.5096C17.3264 33.5187 17.3237 33.5263 17.3182 33.5333C17.3127 33.5403 17.303 33.5466 17.2906 33.5507C17.2782 33.5549 17.261 33.5584 17.239 33.5619C17.2169 33.5647 17.1887 33.5661 17.1543 33.5661C17.1219 33.5661 17.0944 33.5647 17.073 33.5619C17.051 33.5591 17.0331 33.5556 17.02 33.5507C17.0069 33.5466 16.9973 33.541 16.9925 33.5333C16.9877 33.5263 16.9856 33.518 16.9856 33.5096V31.5406C16.9856 31.5315 16.9877 31.5239 16.9925 31.5169C16.9973 31.5099 17.0063 31.5036 17.02 31.498C17.0331 31.4932 17.051 31.4897 17.073 31.4869C17.0951 31.4848 17.1219 31.4834 17.1543 31.4834C17.1887 31.4834 17.2169 31.4848 17.239 31.4869C17.261 31.489 17.2782 31.4925 17.2906 31.498C17.303 31.5029 17.312 31.5092 17.3182 31.5169C17.3237 31.5239 17.3264 31.5322 17.3264 31.5406V32.3762H18.7889V31.5406C18.7889 31.5315 18.7916 31.5239 18.7971 31.5169C18.8026 31.5099 18.8116 31.5036 18.8247 31.498C18.8371 31.4932 18.8543 31.4897 18.8763 31.4869C18.8984 31.4848 18.9266 31.4834 18.961 31.4834C18.9934 31.4834 19.0209 31.4848 19.0423 31.4869C19.0643 31.489 19.0815 31.4925 19.0939 31.498C19.1063 31.5029 19.1152 31.5092 19.1214 31.5169C19.1269 31.5239 19.1297 31.5322 19.1297 31.5406V33.5096Z" fill="white"/>
<path d="M23.2823 31.6167C23.2823 31.6341 23.2802 31.6502 23.2768 31.6648C23.2727 31.6795 23.2671 31.6913 23.2596 31.7018C23.252 31.7122 23.243 31.7199 23.232 31.7255C23.2217 31.7311 23.2093 31.7346 23.1962 31.7346H22.3521V33.5097C22.3521 33.5187 22.3493 33.5264 22.3431 33.5334C22.3369 33.5403 22.3287 33.5466 22.3156 33.5508C22.3025 33.555 22.286 33.5585 22.264 33.562C22.2419 33.5648 22.2137 33.5662 22.1793 33.5662C22.1469 33.5662 22.1194 33.5648 22.0973 33.562C22.0753 33.5592 22.0574 33.5557 22.0443 33.5508C22.0312 33.5459 22.0216 33.541 22.0175 33.5334C22.0126 33.5264 22.0106 33.518 22.0106 33.5097V31.7346H21.1664C21.1533 31.7346 21.141 31.7318 21.1306 31.7255C21.1203 31.7199 21.1114 31.7115 21.1038 31.7018C21.0962 31.6913 21.0907 31.6795 21.0866 31.6648C21.0824 31.6502 21.0811 31.6341 21.0811 31.6167C21.0811 31.5993 21.0831 31.5832 21.0866 31.5679C21.0907 31.5525 21.0962 31.5393 21.1038 31.5288C21.1114 31.5176 21.1203 31.5093 21.1306 31.5037C21.141 31.4981 21.1533 31.4946 21.1664 31.4946H23.1955C23.2086 31.4946 23.221 31.4974 23.2313 31.5037C23.2417 31.5093 23.2506 31.5176 23.2589 31.5288C23.2665 31.54 23.272 31.5525 23.2761 31.5679C23.2802 31.5832 23.2823 31.5993 23.2823 31.6167Z" fill="white"/>
<path d="M27.0419 33.2181C27.0419 33.2355 27.0412 33.2509 27.0391 33.2648C27.0371 33.2788 27.0343 33.2906 27.0309 33.3004C27.0267 33.3109 27.0219 33.3199 27.015 33.3276C27.0082 33.3353 26.9923 33.3492 26.9675 33.3681C26.9427 33.3869 26.9014 33.4106 26.8429 33.4399C26.7844 33.4692 26.7197 33.4943 26.6467 33.5159C26.5744 33.5375 26.4959 33.5557 26.4119 33.5689C26.3279 33.5829 26.2411 33.5899 26.1516 33.5899C25.9726 33.5899 25.8135 33.5668 25.6752 33.5215C25.5368 33.4762 25.4211 33.4085 25.3274 33.3192C25.2338 33.23 25.1629 33.1205 25.114 32.9907C25.0651 32.861 25.041 32.711 25.041 32.5415C25.041 32.3497 25.0713 32.1865 25.1312 32.0498C25.1911 31.9131 25.2737 31.8015 25.3791 31.715C25.4837 31.6278 25.6063 31.5637 25.7468 31.5225C25.8872 31.4814 26.0373 31.4604 26.1977 31.4604C26.2838 31.4604 26.3658 31.4667 26.4442 31.4793C26.5227 31.4918 26.5943 31.5079 26.6604 31.5281C26.7265 31.5483 26.7851 31.5714 26.8367 31.5979C26.8883 31.6237 26.9255 31.646 26.9496 31.6641C26.9737 31.6823 26.9896 31.6962 26.9985 31.7053C27.0068 31.715 27.0137 31.7255 27.0185 31.7367C27.0233 31.7485 27.0267 31.7611 27.0288 31.775C27.0309 31.789 27.0316 31.805 27.0316 31.8238C27.0316 31.8657 27.0233 31.895 27.0075 31.9117C26.9909 31.9285 26.9737 31.9368 26.9544 31.9368C26.9276 31.9368 26.8945 31.9236 26.856 31.8978C26.8167 31.872 26.7665 31.8427 26.7059 31.812C26.6446 31.7806 26.5709 31.752 26.4842 31.7262C26.3974 31.7004 26.2941 31.6871 26.1737 31.6871C25.9258 31.6871 25.7344 31.7597 25.6001 31.9047C25.4658 32.0498 25.3984 32.2591 25.3984 32.5332C25.3984 32.6713 25.4163 32.7919 25.4528 32.8952C25.4892 32.9991 25.5409 33.0849 25.6091 33.1539C25.6765 33.223 25.7592 33.2746 25.8569 33.3081C25.954 33.3423 26.0642 33.359 26.186 33.359C26.3003 33.359 26.4016 33.345 26.4897 33.3178C26.5771 33.2906 26.6536 33.26 26.719 33.2265C26.7837 33.193 26.8381 33.1623 26.8808 33.1351C26.9235 33.1079 26.9558 33.094 26.9765 33.094C26.9882 33.094 26.9978 33.0967 27.0068 33.1016C27.015 33.1065 27.0226 33.1149 27.0281 33.1253C27.0336 33.1365 27.0384 33.1491 27.0412 33.1644C27.0405 33.1804 27.0419 33.1979 27.0419 33.2181Z" fill="white"/>
<path d="M30.923 31.6167C30.923 31.6341 30.9209 31.6502 30.9175 31.6648C30.9133 31.6795 30.9078 31.6913 30.9002 31.7018C30.8927 31.7122 30.8837 31.7199 30.8727 31.7255C30.8624 31.7311 30.85 31.7346 30.8369 31.7346H29.9928V33.5097C29.9928 33.5187 29.99 33.5264 29.9838 33.5334C29.9776 33.5403 29.9693 33.5466 29.9563 33.5508C29.9432 33.555 29.9267 33.5585 29.9046 33.562C29.8826 33.5648 29.8544 33.5662 29.8199 33.5662C29.7876 33.5662 29.76 33.5648 29.738 33.562C29.716 33.5592 29.6981 33.5557 29.685 33.5508C29.6719 33.5459 29.6623 33.541 29.6581 33.5334C29.6533 33.5264 29.6512 33.518 29.6512 33.5097V31.7346H28.8078C28.7947 31.7346 28.7823 31.7318 28.772 31.7255C28.7617 31.7199 28.7527 31.7115 28.7451 31.7018C28.7376 31.6913 28.7321 31.6795 28.7279 31.6648C28.7238 31.6502 28.7224 31.6341 28.7224 31.6167C28.7224 31.5993 28.7245 31.5832 28.7279 31.5679C28.7321 31.5525 28.7376 31.5393 28.7451 31.5288C28.7527 31.5176 28.7617 31.5093 28.772 31.5037C28.7823 31.4981 28.7947 31.4946 28.8078 31.4946H30.8369C30.85 31.4946 30.8624 31.4974 30.8727 31.5037C30.883 31.5093 30.892 31.5176 30.9002 31.5288C30.9078 31.54 30.9133 31.5525 30.9175 31.5679C30.9209 31.5832 30.923 31.5993 30.923 31.6167Z" fill="white"/>
<path d="M34.8636 32.9485C34.8636 33.0475 34.8395 33.1354 34.7907 33.2142C34.7418 33.293 34.6695 33.3586 34.5731 33.4123C34.4767 33.466 34.3576 33.5071 34.215 33.535C34.0732 33.5636 33.9073 33.5776 33.7186 33.5776C33.6635 33.5776 33.6078 33.5769 33.5513 33.5762C33.4948 33.5755 33.4404 33.5741 33.3867 33.572C33.333 33.5699 33.2814 33.5671 33.2304 33.5643C33.1802 33.5615 33.132 33.5581 33.0858 33.5532C33.017 33.5462 32.9647 33.5274 32.9282 33.4981C32.8917 33.4681 32.8738 33.4255 32.8738 33.3683V31.6776C32.8738 31.6212 32.8917 31.5772 32.9282 31.5472C32.9647 31.5165 33.017 31.4984 33.0858 31.4928C33.1396 31.4886 33.1919 31.4851 33.2449 31.4817C33.2972 31.4789 33.3496 31.4761 33.4026 31.474C33.4556 31.4719 33.5079 31.4698 33.5616 31.4684C33.6153 31.467 33.6704 31.4663 33.7276 31.4663C33.9011 31.4663 34.0525 31.4782 34.1813 31.5019C34.3101 31.5256 34.4175 31.5605 34.5035 31.6051C34.5896 31.6497 34.6536 31.7048 34.6956 31.7704C34.7376 31.836 34.7583 31.9106 34.7583 31.9943C34.7583 32.1003 34.7204 32.1924 34.6454 32.2705C34.5696 32.3486 34.4588 32.4058 34.3121 32.4421C34.4994 32.4756 34.6378 32.5363 34.7287 32.6241C34.8182 32.7134 34.8636 32.8215 34.8636 32.9485ZM34.414 32.0131C34.414 31.9594 34.4009 31.9113 34.3755 31.8695C34.35 31.8276 34.308 31.792 34.2495 31.7641C34.1909 31.7355 34.1159 31.7146 34.0236 31.7C33.9314 31.6853 33.8191 31.6783 33.6876 31.6783C33.5885 31.6783 33.499 31.6804 33.4184 31.6846C33.3385 31.6888 33.2704 31.6937 33.2153 31.6979V32.3723H33.7503C33.9658 32.3723 34.1304 32.341 34.244 32.2789C34.3576 32.2161 34.414 32.1275 34.414 32.0131ZM34.509 32.9596C34.509 32.8955 34.4939 32.8397 34.4629 32.7908C34.4326 32.742 34.3844 32.7016 34.3197 32.6688C34.255 32.636 34.173 32.6116 34.0753 32.5955C33.9768 32.5795 33.8611 32.5718 33.7276 32.5718H33.2153V33.3398C33.2552 33.3439 33.2965 33.3474 33.3399 33.3509C33.3826 33.3537 33.4267 33.3565 33.4714 33.3586C33.5162 33.3607 33.5609 33.3628 33.6057 33.3642C33.6504 33.3656 33.6931 33.3663 33.7331 33.3663C33.8666 33.3663 33.9823 33.3572 34.0794 33.3391C34.1765 33.3209 34.257 33.2944 34.3211 33.2595C34.3851 33.2247 34.4319 33.1821 34.4629 33.1312C34.4932 33.081 34.509 33.0238 34.509 32.9596Z" fill="white"/>
<path d="M39.3678 32.5044C39.3678 32.6613 39.341 32.8057 39.2879 32.9375C39.2342 33.0693 39.155 33.1844 39.049 33.2814C38.943 33.3783 38.8108 33.4543 38.6524 33.5087C38.494 33.5631 38.3102 33.5904 38.1002 33.5904C37.8978 33.5904 37.7208 33.5659 37.5693 33.5178C37.4179 33.4697 37.2905 33.3999 37.1886 33.3093C37.0867 33.2186 37.0102 33.1084 36.9593 32.9794C36.909 32.8503 36.8835 32.7045 36.8835 32.542C36.8835 32.3851 36.9097 32.2407 36.962 32.1089C37.0144 31.9771 37.0936 31.8627 37.1996 31.7664C37.3056 31.6702 37.4378 31.5949 37.5962 31.5411C37.7545 31.4874 37.9398 31.4609 38.1511 31.4609C38.3536 31.4609 38.5305 31.4847 38.682 31.5328C38.8335 31.5809 38.9602 31.65 39.0614 31.7406C39.1626 31.8313 39.239 31.9415 39.2907 32.0705C39.3423 32.1982 39.3678 32.3433 39.3678 32.5044ZM39.007 32.5281C39.007 32.4165 38.9925 32.3098 38.9643 32.2086C38.9354 32.1068 38.8879 32.0175 38.8211 31.9401C38.7543 31.8627 38.6648 31.8006 38.5519 31.7553C38.439 31.7092 38.2992 31.6869 38.1312 31.6869C37.9769 31.6869 37.8434 31.7078 37.7305 31.7504C37.6175 31.7922 37.526 31.8508 37.4543 31.9255C37.3827 32.0001 37.3297 32.088 37.2953 32.1898C37.2609 32.2916 37.2437 32.4011 37.2437 32.5183C37.2437 32.6313 37.2581 32.7394 37.2863 32.8413C37.3146 32.9431 37.3628 33.0331 37.4296 33.1098C37.4963 33.1865 37.5859 33.2479 37.6988 33.2925C37.811 33.3372 37.9515 33.3602 38.1195 33.3602C38.2737 33.3602 38.4073 33.3393 38.5202 33.2974C38.6331 33.2556 38.7247 33.1977 38.7963 33.123C38.8679 33.0491 38.9209 32.9612 38.9554 32.8601C38.9898 32.7576 39.007 32.6474 39.007 32.5281Z" fill="white"/>
<path d="M46.4998 33.5097C46.4998 33.5187 46.4971 33.5264 46.4909 33.5334C46.4847 33.5403 46.4764 33.5466 46.4633 33.5508C46.4502 33.555 46.4337 33.5585 46.4117 33.562C46.3897 33.5648 46.3614 33.5662 46.327 33.5662C46.2946 33.5662 46.2671 33.5648 46.2451 33.562C46.223 33.5592 46.2051 33.5557 46.1921 33.5508C46.179 33.5459 46.1693 33.541 46.1652 33.5334C46.1604 33.5264 46.1583 33.518 46.1583 33.5097V32.2409C46.1583 32.1858 46.1597 32.1307 46.1624 32.0756C46.1652 32.0205 46.1686 31.9654 46.1728 31.9103C46.1287 31.9668 46.0812 32.0226 46.0296 32.077C45.9779 32.1314 45.9256 32.1865 45.8719 32.2416L44.6525 33.5104C44.6428 33.5208 44.6339 33.5292 44.6249 33.5369C44.616 33.5445 44.6057 33.5501 44.5933 33.5543C44.5809 33.5585 44.5657 33.562 44.5492 33.5641C44.5327 33.5662 44.51 33.5676 44.4831 33.5676C44.4563 33.5676 44.4342 33.5662 44.4156 33.5634C44.3977 33.5606 44.3826 33.5571 44.3716 33.5522C44.3599 33.548 44.3523 33.5424 44.3475 33.5348C44.3426 33.5278 44.3406 33.5194 44.3406 33.5111V31.5421C44.3406 31.533 44.3426 31.5253 44.3475 31.5183C44.3523 31.5114 44.3612 31.5051 44.375 31.4995C44.3881 31.4946 44.406 31.4911 44.428 31.4883C44.4501 31.4863 44.4769 31.4849 44.5093 31.4849C44.5761 31.4849 44.6215 31.4897 44.6449 31.4988C44.669 31.5086 44.6807 31.5225 44.6807 31.5414V32.8226C44.6807 32.8763 44.6793 32.9294 44.6766 32.9817C44.6738 33.034 44.6697 33.0863 44.6635 33.1386C44.7076 33.0863 44.7509 33.0347 44.7936 32.9845C44.8363 32.9335 44.8838 32.8826 44.9355 32.8324L46.1721 31.5421C46.1817 31.5316 46.1914 31.5232 46.201 31.5163C46.2106 31.5093 46.2224 31.503 46.2368 31.4988C46.2513 31.4946 46.2671 31.4911 46.2857 31.489C46.3036 31.487 46.327 31.4856 46.3559 31.4856C46.3828 31.4856 46.4048 31.487 46.4234 31.489C46.4413 31.4911 46.4565 31.4946 46.4675 31.5002C46.4792 31.5051 46.4867 31.5114 46.4916 31.519C46.4964 31.526 46.4984 31.5344 46.4984 31.5428V33.5097H46.4998Z" fill="white"/>
<path d="M51.0413 33.5096C51.0413 33.5187 51.0385 33.5263 51.033 33.5333C51.0275 33.5403 51.0179 33.5466 51.0055 33.5507C50.9931 33.5549 50.9759 33.5584 50.9539 33.5619C50.9318 33.5647 50.905 33.5661 50.8726 33.5661C50.8382 33.5661 50.8099 33.5647 50.7879 33.5619C50.7659 33.5591 50.7487 33.5556 50.7363 33.5507C50.7239 33.5466 50.7149 33.541 50.7087 33.5333C50.7032 33.5263 50.7005 33.518 50.7005 33.5096V32.598H49.238V33.5096C49.238 33.5187 49.2353 33.5263 49.2298 33.5333C49.2243 33.5403 49.2146 33.5466 49.2022 33.5507C49.1898 33.5549 49.1726 33.5584 49.1506 33.5619C49.1286 33.5647 49.1003 33.5661 49.0659 33.5661C49.0335 33.5661 49.006 33.5647 48.9847 33.5619C48.9626 33.5591 48.9447 33.5556 48.9316 33.5507C48.9186 33.5466 48.9089 33.541 48.9041 33.5333C48.8993 33.5263 48.8972 33.518 48.8972 33.5096V31.5406C48.8972 31.5315 48.8993 31.5239 48.9041 31.5169C48.9089 31.5099 48.9179 31.5036 48.9316 31.498C48.9447 31.4932 48.9626 31.4897 48.9847 31.4869C49.0067 31.4848 49.0335 31.4834 49.0659 31.4834C49.1003 31.4834 49.1286 31.4848 49.1506 31.4869C49.1726 31.489 49.1898 31.4925 49.2022 31.498C49.2146 31.5029 49.2236 31.5092 49.2298 31.5169C49.2353 31.5239 49.238 31.5322 49.238 31.5406V32.3762H50.7005V31.5406C50.7005 31.5315 50.7032 31.5239 50.7087 31.5169C50.7142 31.5099 50.7232 31.5036 50.7363 31.498C50.7487 31.4932 50.7659 31.4897 50.7879 31.4869C50.8099 31.4848 50.8382 31.4834 50.8726 31.4834C50.905 31.4834 50.9325 31.4848 50.9539 31.4869C50.9759 31.489 50.9931 31.4925 51.0055 31.498C51.0179 31.5029 51.0268 31.5092 51.033 31.5169C51.0385 31.5239 51.0413 31.5322 51.0413 31.5406V33.5096Z" fill="white"/>
<path d="M55.1937 31.6167C55.1937 31.6341 55.1916 31.6502 55.1882 31.6648C55.184 31.6795 55.1785 31.6913 55.171 31.7018C55.1634 31.7122 55.1544 31.7199 55.1434 31.7255C55.1331 31.7311 55.1207 31.7346 55.1076 31.7346H54.2635V33.5097C54.2635 33.5187 54.2607 33.5264 54.2545 33.5334C54.2483 33.5403 54.24 33.5466 54.227 33.5508C54.2139 33.555 54.1974 33.5585 54.1753 33.562C54.1533 33.5648 54.1251 33.5662 54.0906 33.5662C54.0583 33.5662 54.0307 33.5648 54.0087 33.562C53.9867 33.5592 53.9688 33.5557 53.9557 33.5508C53.9426 33.5459 53.933 33.541 53.9288 33.5334C53.924 33.5264 53.922 33.518 53.922 33.5097V31.7346H53.0778C53.0647 31.7346 53.0523 31.7318 53.042 31.7255C53.0317 31.7199 53.0227 31.7115 53.0152 31.7018C53.0076 31.6913 53.0021 31.6795 52.9979 31.6648C52.9938 31.6502 52.9924 31.6341 52.9924 31.6167C52.9924 31.5993 52.9945 31.5832 52.9979 31.5679C53.0021 31.5525 53.0076 31.5393 53.0152 31.5288C53.0227 31.5176 53.0317 31.5093 53.042 31.5037C53.0523 31.4981 53.0647 31.4946 53.0778 31.4946H55.1069C55.12 31.4946 55.1324 31.4974 55.1427 31.5037C55.153 31.5093 55.162 31.5176 55.1703 31.5288C55.1778 31.54 55.1833 31.5525 55.1875 31.5679C55.1916 31.5832 55.1937 31.5993 55.1937 31.6167Z" fill="white"/>
<path d="M59.214 32.4244C59.214 32.4767 59.1961 32.5123 59.1597 32.5318C59.1232 32.5513 59.0881 32.5611 59.0536 32.5611H57.2875C57.2875 32.6831 57.3034 32.7933 57.335 32.8917C57.3667 32.99 57.4184 33.0751 57.4913 33.1449C57.5643 33.2146 57.658 33.269 57.775 33.3067C57.8914 33.3443 58.0346 33.3632 58.204 33.3632C58.3245 33.3632 58.4319 33.3555 58.5276 33.3395C58.6233 33.3234 58.7052 33.306 58.7755 33.2865C58.845 33.2669 58.9021 33.2488 58.9469 33.2335C58.9917 33.2174 59.0233 33.2097 59.0426 33.2097C59.0543 33.2097 59.0646 33.2118 59.0743 33.216C59.0839 33.2202 59.0915 33.2272 59.097 33.2369C59.1025 33.246 59.1073 33.2586 59.1101 33.2725C59.1128 33.2865 59.1142 33.3053 59.1142 33.3269C59.1142 33.3374 59.1135 33.3471 59.1115 33.3562C59.1094 33.366 59.1073 33.3743 59.1046 33.3827C59.1018 33.3911 59.0977 33.3981 59.0915 33.4057C59.086 33.4127 59.0784 33.4204 59.0688 33.4274C59.0591 33.4343 59.0295 33.4476 58.9799 33.4657C58.9304 33.4838 58.8657 33.502 58.7851 33.5201C58.7052 33.5382 58.6116 33.5543 58.5062 33.5689C58.4002 33.5836 58.2866 33.5906 58.164 33.5906C57.9637 33.5906 57.786 33.5675 57.6318 33.5222C57.4776 33.4769 57.3474 33.4092 57.2428 33.3199C57.1381 33.2307 57.0583 33.1205 57.0039 32.9879C56.9495 32.8561 56.9226 32.7027 56.9226 32.529C56.9226 32.3623 56.9508 32.213 57.0073 32.0805C57.0638 31.948 57.1443 31.8364 57.249 31.7443C57.3536 31.6523 57.4803 31.5818 57.6284 31.533C57.7764 31.4842 57.941 31.4604 58.122 31.4604C58.3169 31.4604 58.4828 31.4849 58.6198 31.5344C58.7576 31.5839 58.8705 31.6502 58.9593 31.7332C59.0481 31.8169 59.1128 31.9131 59.1541 32.024C59.1955 32.1342 59.2154 32.25 59.2154 32.3721V32.4244H59.214ZM58.8622 32.3483C58.8677 32.1391 58.8051 31.9766 58.6736 31.8587C58.542 31.7408 58.3499 31.6823 58.0986 31.6823C57.9685 31.6823 57.8549 31.7004 57.7564 31.7374C57.658 31.7743 57.5753 31.8231 57.5072 31.8845C57.4397 31.9452 57.3874 32.0163 57.3509 32.0966C57.3144 32.1768 57.2937 32.2605 57.2882 32.3476H58.8622V32.3483Z" fill="white"/>
<path d="M63.7016 32.496C63.7016 32.6641 63.6775 32.8162 63.6286 32.9508C63.5797 33.0854 63.5081 33.2005 63.4138 33.2946C63.3195 33.3888 63.2024 33.462 63.0633 33.5129C62.9242 33.5646 62.7645 33.5904 62.5855 33.5904C62.509 33.5904 62.4374 33.5841 62.3706 33.5722C62.3039 33.5597 62.2384 33.5408 62.1744 33.5143C62.1104 33.4885 62.0463 33.4557 61.9823 33.4167C61.9183 33.3776 61.8508 33.3302 61.7806 33.2751V34.2913C61.7806 34.3004 61.7778 34.3081 61.7716 34.315C61.7654 34.322 61.7572 34.3283 61.7448 34.3339C61.7324 34.3388 61.7152 34.3422 61.6931 34.345C61.6711 34.3471 61.6429 34.3485 61.6084 34.3485C61.5761 34.3485 61.5485 34.3471 61.5272 34.345C61.5052 34.3429 61.4872 34.3395 61.4742 34.3339C61.4611 34.329 61.4514 34.3227 61.4473 34.315C61.4432 34.3074 61.4404 34.2997 61.4404 34.2913V31.5411C61.4404 31.5307 61.4425 31.5223 61.4473 31.5153C61.4521 31.5084 61.4604 31.5021 61.4728 31.4979C61.4852 31.4937 61.5017 31.4902 61.5217 31.4881C61.5416 31.486 61.5657 31.4847 61.5947 31.4847C61.6236 31.4847 61.647 31.486 61.6663 31.4881C61.6856 31.4902 61.7014 31.4937 61.7152 31.4979C61.7282 31.5021 61.7379 31.5084 61.7441 31.5153C61.7496 31.5223 61.7523 31.5314 61.7523 31.5411V31.8264C61.8322 31.7643 61.9086 31.7099 61.9816 31.6646C62.0539 31.6186 62.1269 31.5809 62.1992 31.5502C62.2715 31.5195 62.3459 31.4972 62.4223 31.4826C62.4987 31.4679 62.58 31.4609 62.6653 31.4609C62.8526 31.4609 63.0117 31.4881 63.1432 31.5425C63.2747 31.597 63.3821 31.6716 63.4654 31.7657C63.5487 31.8599 63.6086 31.9701 63.6458 32.0957C63.683 32.2198 63.7016 32.3537 63.7016 32.496ZM63.3442 32.5372C63.3442 32.427 63.3325 32.3209 63.3098 32.2184C63.2871 32.1159 63.2485 32.0252 63.1941 31.9457C63.1397 31.8662 63.0675 31.802 62.9766 31.7539C62.8857 31.7058 62.7721 31.682 62.6344 31.682C62.5655 31.682 62.4987 31.689 62.4326 31.7037C62.3665 31.7183 62.2997 31.742 62.2309 31.7755C62.162 31.809 62.0904 31.8522 62.016 31.9052C61.9417 31.9582 61.8632 32.0238 61.7813 32.1019V32.9591C61.9245 33.091 62.0615 33.1921 62.1916 33.2625C62.3218 33.333 62.4595 33.3679 62.6027 33.3679C62.7342 33.3679 62.8471 33.3435 62.9421 33.2953C63.0365 33.2465 63.1136 33.183 63.1728 33.1035C63.232 33.0247 63.2754 32.9354 63.3029 32.8357C63.3305 32.7366 63.3442 32.6369 63.3442 32.5372Z" fill="white"/>
<path d="M68.0716 33.5096C68.0716 33.5187 68.0689 33.5263 68.0627 33.5333C68.0565 33.5403 68.0482 33.5466 68.0358 33.5507C68.0234 33.5549 68.0062 33.5584 67.9842 33.5619C67.9621 33.5647 67.9353 33.5661 67.9029 33.5661C67.8685 33.5661 67.8403 33.5647 67.8182 33.5619C67.7962 33.5591 67.779 33.5556 67.7666 33.5507C67.7542 33.5466 67.7453 33.541 67.7391 33.5333C67.7329 33.5256 67.7308 33.518 67.7308 33.5096V32.598H66.2684V33.5096C66.2684 33.5187 66.2656 33.5263 66.2594 33.5333C66.2532 33.5403 66.2449 33.5466 66.2325 33.5507C66.2202 33.5549 66.2029 33.5584 66.1809 33.5619C66.1589 33.5647 66.1306 33.5661 66.0962 33.5661C66.0639 33.5661 66.0363 33.5647 66.015 33.5619C65.9929 33.5591 65.975 33.5556 65.962 33.5507C65.9489 33.5466 65.9392 33.541 65.9351 33.5333C65.931 33.5256 65.9282 33.518 65.9282 33.5096V31.5406C65.9282 31.5315 65.9303 31.5239 65.9351 31.5169C65.9399 31.5099 65.9489 31.5036 65.962 31.498C65.975 31.4932 65.9929 31.4897 66.015 31.4869C66.037 31.4848 66.0639 31.4834 66.0962 31.4834C66.1306 31.4834 66.1589 31.4848 66.1809 31.4869C66.2029 31.489 66.2202 31.4925 66.2325 31.498C66.2449 31.5029 66.2539 31.5092 66.2594 31.5169C66.2649 31.5239 66.2684 31.5322 66.2684 31.5406V32.3762H67.7308V31.5406C67.7308 31.5315 67.7336 31.5239 67.7391 31.5169C67.7446 31.5099 67.7535 31.5036 67.7666 31.498C67.779 31.4932 67.7962 31.4897 67.8182 31.4869C67.8403 31.4848 67.8685 31.4834 67.9029 31.4834C67.9353 31.4834 67.9628 31.4848 67.9842 31.4869C68.0062 31.489 68.0234 31.4925 68.0358 31.498C68.0482 31.5029 68.0572 31.5092 68.0627 31.5169C68.0682 31.5239 68.0716 31.5322 68.0716 31.5406V33.5096Z" fill="white"/>
<path d="M72.582 32.4244C72.582 32.4767 72.5641 32.5123 72.5276 32.5318C72.4911 32.5513 72.456 32.5611 72.4216 32.5611H70.6555C70.6555 32.6831 70.6713 32.7933 70.703 32.8917C70.7347 32.99 70.7863 33.0751 70.8593 33.1449C70.9316 33.2153 71.0259 33.269 71.143 33.3067C71.2593 33.3443 71.4025 33.3632 71.5726 33.3632C71.6931 33.3632 71.8005 33.3555 71.8962 33.3395C71.9912 33.3234 72.0739 33.306 72.1441 33.2865C72.2136 33.2669 72.2708 33.2488 72.3155 33.2335C72.3603 33.2174 72.3926 33.2097 72.4112 33.2097C72.4229 33.2097 72.4333 33.2118 72.4429 33.216C72.4525 33.2202 72.4601 33.2272 72.4656 33.2369C72.4711 33.246 72.4753 33.2586 72.4787 33.2725C72.4822 33.2865 72.4828 33.3053 72.4828 33.3269C72.4828 33.3374 72.4822 33.3471 72.4801 33.3562C72.478 33.366 72.476 33.3743 72.4732 33.3827C72.4704 33.3904 72.4663 33.3981 72.4601 33.4057C72.4546 33.4127 72.447 33.4204 72.4374 33.4274C72.4278 33.4343 72.3982 33.4476 72.3486 33.4657C72.299 33.4838 72.2343 33.502 72.1537 33.5201C72.0739 33.5382 71.9802 33.5543 71.8749 33.5689C71.7688 33.5836 71.6552 33.5906 71.5327 33.5906C71.3323 33.5906 71.1547 33.5675 71.0004 33.5222C70.8462 33.4762 70.7161 33.4092 70.6114 33.3199C70.5068 33.2307 70.4269 33.1205 70.3725 32.9879C70.3181 32.8561 70.2913 32.7027 70.2913 32.529C70.2913 32.3623 70.3195 32.213 70.3759 32.0805C70.4324 31.9487 70.513 31.8364 70.6176 31.7443C70.7223 31.6523 70.849 31.5818 70.997 31.533C71.145 31.4842 71.3096 31.4604 71.4907 31.4604C71.6855 31.4604 71.8515 31.4849 71.9885 31.5344C72.1262 31.5839 72.2391 31.6502 72.3279 31.7332C72.4167 31.8169 72.4815 31.9131 72.5228 32.024C72.5634 32.1342 72.5841 32.25 72.5841 32.3721V32.4244H72.582ZM72.2295 32.3483C72.235 32.1391 72.1723 31.9766 72.0408 31.8587C71.9093 31.7408 71.7172 31.6823 71.4652 31.6823C71.3358 31.6823 71.2215 31.7004 71.123 31.7374C71.0245 31.7743 70.9419 31.8231 70.8738 31.8845C70.8063 31.9452 70.7539 32.0163 70.7175 32.0966C70.681 32.1768 70.6603 32.2605 70.6541 32.3476H72.2295V32.3483Z" fill="white"/>
<path d="M76.5341 31.6167C76.5341 31.6341 76.5321 31.6502 76.5286 31.6648C76.5245 31.6795 76.519 31.6913 76.5114 31.7018C76.5038 31.7122 76.4949 31.7199 76.4846 31.7255C76.4742 31.7311 76.4618 31.7346 76.4488 31.7346H75.6046V33.5097C75.6046 33.5187 75.6019 33.5264 75.5957 33.5334C75.5895 33.5403 75.5812 33.5466 75.5688 33.5508C75.5564 33.555 75.5392 33.5585 75.5172 33.562C75.4951 33.5648 75.4669 33.5662 75.4325 33.5662C75.4001 33.5662 75.3726 33.5648 75.3512 33.562C75.3292 33.5592 75.3113 33.5557 75.2982 33.5508C75.2851 33.5466 75.2755 33.541 75.2714 33.5334C75.2665 33.5264 75.2645 33.518 75.2645 33.5097V31.7346H74.4203C74.4073 31.7346 74.3949 31.7318 74.3845 31.7255C74.3742 31.7199 74.3653 31.7115 74.3577 31.7018C74.3501 31.6913 74.3446 31.6795 74.3405 31.6648C74.3363 31.6502 74.335 31.6341 74.335 31.6167C74.335 31.5993 74.337 31.5832 74.3405 31.5679C74.3446 31.5525 74.3501 31.5393 74.3577 31.5288C74.3653 31.5176 74.3742 31.5093 74.3845 31.5037C74.3949 31.4981 74.4073 31.4946 74.4203 31.4946H76.4494C76.4625 31.4946 76.4749 31.4974 76.4853 31.5037C76.4956 31.5093 76.5045 31.5176 76.5121 31.5288C76.5197 31.54 76.5252 31.5525 76.5293 31.5679C76.5321 31.5832 76.5341 31.5993 76.5341 31.6167Z" fill="white"/>
<path d="M79.4439 32.4526C79.4439 32.4944 79.4363 32.523 79.4211 32.5383C79.406 32.5537 79.386 32.5614 79.3612 32.5614H78.1618C78.137 32.5614 78.1164 32.5537 78.1005 32.5376C78.084 32.5216 78.0764 32.4937 78.0764 32.4526C78.0764 32.4121 78.0847 32.3835 78.1005 32.3675C78.117 32.3514 78.137 32.3438 78.1618 32.3438H79.3612C79.3729 32.3438 79.384 32.3458 79.3943 32.3493C79.4046 32.3528 79.4136 32.3591 79.4211 32.3675C79.4287 32.3765 79.4342 32.3877 79.4383 32.4009C79.4418 32.4156 79.4439 32.4323 79.4439 32.4526Z" fill="white"/>
<path d="M84.6414 33.4838C84.6435 33.5145 84.6352 33.5355 84.6173 33.548C84.5994 33.5606 84.5561 33.5669 84.4872 33.5669C84.4528 33.5669 84.4245 33.5662 84.4011 33.5648C84.3784 33.5634 84.3598 33.5606 84.3467 33.5571C84.3337 33.5536 84.324 33.548 84.3178 33.5417C84.3123 33.5355 84.3082 33.5271 84.3061 33.5166L84.103 32.3197C84.0975 32.2779 84.0913 32.2333 84.0844 32.1858C84.0775 32.1384 84.0713 32.091 84.0658 32.0435C84.0603 31.9961 84.0541 31.948 84.0486 31.8999C84.0431 31.8517 84.0362 31.8064 84.0286 31.7625L84.0259 31.7143C84.0066 31.7562 83.9866 31.8008 83.966 31.8483C83.9453 31.8957 83.9233 31.9431 83.8999 31.9905C83.8772 32.0387 83.8544 32.0868 83.8324 32.1356C83.8104 32.1844 83.7897 32.2305 83.7711 32.2737L83.1817 33.4811C83.1742 33.4971 83.1659 33.5104 83.1576 33.5215C83.1494 33.5327 83.1384 33.541 83.126 33.5473C83.1136 33.5536 83.0977 33.5585 83.0785 33.5613C83.0592 33.5641 83.0358 33.5655 83.0069 33.5655C82.9779 33.5655 82.9552 33.5641 82.9366 33.562C82.918 33.5599 82.9029 33.5557 82.8891 33.5501C82.876 33.5445 82.8643 33.5362 82.8547 33.525C82.845 33.5138 82.8368 33.4999 82.8292 33.4825L82.2625 32.273C82.2412 32.2312 82.2199 32.1865 82.1978 32.1391C82.1758 32.0924 82.1544 32.0442 82.1338 31.9954C82.1124 31.9466 82.0925 31.8985 82.0725 31.851C82.0525 31.8036 82.0346 31.7576 82.0195 31.7143L82.014 31.7625C82.0085 31.8057 82.0023 31.8517 81.9954 31.8999C81.9885 31.948 81.9816 31.9954 81.974 32.0435C81.9665 32.0917 81.9596 32.1391 81.9527 32.1858C81.9458 32.2333 81.9396 32.2779 81.9341 32.3197L81.742 33.4922C81.7399 33.5083 81.7365 33.5215 81.7303 33.5313C81.7241 33.541 81.7145 33.5487 81.7 33.5543C81.6855 33.5592 81.667 33.5627 81.6442 33.5641C81.6215 33.5655 81.5919 33.5662 81.5554 33.5662C81.5189 33.5662 81.4907 33.5648 81.4693 33.562C81.448 33.5592 81.4329 33.5543 81.4232 33.548C81.4136 33.5417 81.4081 33.5334 81.406 33.5229C81.4039 33.5124 81.4053 33.4999 81.4087 33.4838L81.7096 31.6125C81.7193 31.5748 81.7379 31.5455 81.7654 31.5253C81.793 31.5051 81.8343 31.4946 81.89 31.4946H82.0388C82.0828 31.4946 82.12 31.4974 82.1503 31.5023C82.1806 31.5072 82.2068 31.5163 82.2288 31.5295C82.2508 31.5428 82.2694 31.5595 82.2846 31.5804C82.2997 31.6013 82.3149 31.6278 82.3307 31.6599L82.7603 32.5848C82.7851 32.6399 82.8099 32.6943 82.8347 32.748C82.8595 32.8017 82.8836 32.8547 82.9063 32.907C82.929 32.9593 82.9504 33.0103 82.9704 33.0591C82.9903 33.1086 83.0089 33.156 83.0261 33.2028H83.0316C83.0509 33.1546 83.0709 33.1051 83.0915 33.0528C83.1122 33.0005 83.1342 32.9475 83.1576 32.8938C83.1804 32.8401 83.2045 32.7871 83.2292 32.7341C83.254 32.681 83.2781 32.6301 83.3008 32.5806L83.7333 31.6599C83.7463 31.6306 83.7608 31.6062 83.7759 31.5846C83.7911 31.5637 83.809 31.5462 83.8303 31.5337C83.851 31.5204 83.8765 31.5107 83.9047 31.5044C83.9336 31.4981 83.968 31.4946 84.008 31.4946H84.1567C84.2118 31.4946 84.2545 31.503 84.2841 31.5183C84.3137 31.5337 84.3316 31.563 84.3371 31.6055L84.6414 33.4838Z" fill="white"/>
<path d="M88.6821 33.5096C88.6821 33.5243 88.6759 33.5355 88.6636 33.5431C88.6512 33.5508 88.6346 33.5571 88.6147 33.5606C88.5947 33.5641 88.5672 33.5661 88.5327 33.5661C88.5004 33.5661 88.4728 33.5641 88.4494 33.5606C88.4267 33.5571 88.4088 33.5515 88.3964 33.5431C88.384 33.5355 88.3778 33.5236 88.3778 33.5096V33.2899C88.2614 33.3855 88.1334 33.4594 87.9929 33.5117C87.8525 33.5641 87.7072 33.5899 87.5564 33.5899C87.4207 33.5899 87.2996 33.5766 87.1915 33.5494C87.0834 33.5229 86.9925 33.4838 86.9181 33.4343C86.8438 33.3841 86.7866 33.3241 86.7467 33.253C86.7067 33.1818 86.6868 33.1023 86.6868 33.0137C86.6868 32.9049 86.7164 32.8101 86.7756 32.7299C86.8348 32.6497 86.9188 32.582 87.0276 32.5283C87.1364 32.4746 87.2672 32.4341 87.4201 32.4076C87.5729 32.3811 87.7423 32.3672 87.9296 32.3672H88.342V32.1977C88.342 32.1133 88.3303 32.0394 88.3076 31.9745C88.2849 31.9096 88.2477 31.8559 88.196 31.8127C88.1444 31.7694 88.0776 31.7367 87.9957 31.715C87.9137 31.6934 87.8132 31.6823 87.6948 31.6823C87.5805 31.6823 87.4772 31.6927 87.3856 31.7136C87.2941 31.7346 87.2142 31.7583 87.1453 31.7841C87.0765 31.8099 87.02 31.8336 86.9753 31.8545C86.9305 31.8755 86.8982 31.8859 86.8796 31.8859C86.8679 31.8859 86.8575 31.8845 86.8479 31.8817C86.8382 31.8789 86.83 31.8734 86.8238 31.8657C86.8169 31.858 86.8121 31.8476 86.8093 31.835C86.8066 31.8224 86.8052 31.8078 86.8052 31.7904C86.8052 31.7597 86.8079 31.7353 86.8141 31.7178C86.8203 31.7004 86.8348 31.6816 86.8582 31.6634C86.8823 31.6453 86.9243 31.6237 86.9856 31.5993C87.0469 31.5748 87.1171 31.5518 87.1956 31.5309C87.2748 31.51 87.3602 31.4925 87.4517 31.48C87.5433 31.4667 87.6349 31.4604 87.7265 31.4604C87.9041 31.4604 88.0535 31.4765 88.1761 31.5093C88.2979 31.5421 88.3971 31.5888 88.4721 31.6495C88.5472 31.7101 88.6016 31.7855 88.6339 31.8748C88.6663 31.964 88.6828 32.0652 88.6828 32.1782V33.5096H88.6821ZM88.3413 32.5806H87.869C87.7313 32.5806 87.6115 32.5904 87.5082 32.6092C87.4049 32.628 87.3195 32.6559 87.2507 32.6922C87.1818 32.7285 87.1309 32.7717 87.0978 32.8226C87.0641 32.8735 87.0476 32.9314 87.0476 32.997C87.0476 33.11 87.0951 33.2007 87.1894 33.2676C87.2837 33.3353 87.4166 33.3688 87.5887 33.3688C87.7244 33.3688 87.8504 33.3423 87.9681 33.2892C88.0859 33.2362 88.2098 33.1546 88.3413 33.0444V32.5806Z" fill="white"/>
<path d="M93.3295 32.496C93.3295 32.6641 93.3054 32.8162 93.2565 32.9508C93.2076 33.0854 93.136 33.2005 93.0417 33.2946C92.9473 33.3888 92.8303 33.462 92.6912 33.5129C92.5521 33.5646 92.3924 33.5904 92.2134 33.5904C92.1369 33.5904 92.0653 33.5841 91.9986 33.5722C91.9318 33.5597 91.8664 33.5408 91.8023 33.5143C91.7383 33.4885 91.6743 33.4557 91.6102 33.4167C91.5462 33.3776 91.4787 33.3302 91.4085 33.2751V34.2913C91.4085 34.3004 91.4057 34.3081 91.3995 34.315C91.3933 34.322 91.3851 34.3283 91.3727 34.3339C91.3603 34.3388 91.3431 34.3422 91.321 34.345C91.299 34.3471 91.2708 34.3485 91.2364 34.3485C91.204 34.3485 91.1765 34.3471 91.1551 34.345C91.1331 34.3429 91.1152 34.3395 91.1021 34.3339C91.089 34.329 91.0794 34.3227 91.0752 34.315C91.0711 34.3074 91.0684 34.2997 91.0684 34.2913V31.5411C91.0684 31.5307 91.0704 31.5223 91.0752 31.5153C91.0801 31.5084 91.0883 31.5021 91.1007 31.4979C91.1131 31.4937 91.1296 31.4902 91.1496 31.4881C91.1696 31.486 91.1937 31.4847 91.2226 31.4847C91.2515 31.4847 91.2749 31.486 91.2942 31.4881C91.3135 31.4902 91.3293 31.4937 91.3431 31.4979C91.3562 31.5021 91.3658 31.5084 91.372 31.5153C91.3775 31.5223 91.3803 31.5314 91.3803 31.5411V31.8264C91.4601 31.7643 91.5366 31.7099 91.6095 31.6646C91.6818 31.6186 91.7548 31.5809 91.8271 31.5502C91.8994 31.5195 91.9738 31.4972 92.0502 31.4826C92.1266 31.4679 92.2079 31.4609 92.2932 31.4609C92.4805 31.4609 92.6396 31.4881 92.7711 31.5425C92.9026 31.597 93.01 31.6716 93.0933 31.7657C93.1766 31.8599 93.2365 31.9701 93.2737 32.0957C93.3109 32.2198 93.3295 32.3537 93.3295 32.496ZM92.9714 32.5372C92.9714 32.427 92.9597 32.3209 92.937 32.2184C92.9143 32.1159 92.8757 32.0252 92.8213 31.9457C92.7669 31.8662 92.6946 31.802 92.6038 31.7539C92.5129 31.7058 92.3993 31.682 92.2616 31.682C92.1927 31.682 92.1259 31.689 92.0598 31.7037C91.9937 31.7183 91.9269 31.742 91.8581 31.7755C91.7892 31.809 91.7176 31.8522 91.6433 31.9052C91.5689 31.9582 91.4904 32.0238 91.4085 32.1019V32.9591C91.5517 33.091 91.6887 33.1921 91.8189 33.2625C91.949 33.333 92.0867 33.3679 92.2299 33.3679C92.3614 33.3679 92.4743 33.3435 92.5693 33.2953C92.6637 33.2465 92.7408 33.183 92.8 33.1035C92.8592 33.0247 92.9026 32.9354 92.9301 32.8357C92.9577 32.7366 92.9714 32.6369 92.9714 32.5372Z" fill="white"/>
<path d="M97.497 33.5208C97.497 33.5277 97.4942 33.5347 97.4901 33.5403C97.486 33.5459 97.4763 33.5507 97.4632 33.5542C97.4502 33.5577 97.4329 33.5605 97.4116 33.5633C97.3903 33.5654 97.3648 33.5668 97.3345 33.5668C97.2966 33.5668 97.2656 33.5654 97.2415 33.5626C97.2174 33.5598 97.1981 33.5563 97.183 33.5514C97.1678 33.5466 97.1561 33.5417 97.1486 33.534C97.141 33.527 97.1355 33.5187 97.1314 33.5103L96.8367 32.9816C96.8022 32.9132 96.763 32.8547 96.7196 32.8051C96.6755 32.7556 96.6253 32.7159 96.5681 32.6845C96.511 32.6531 96.4462 32.6308 96.3733 32.6161C96.301 32.6015 96.2176 32.5945 96.124 32.5945H95.8982V33.5256C95.8982 33.5312 95.894 33.5368 95.8865 33.5417C95.8789 33.5466 95.8672 33.5507 95.852 33.5549C95.8369 33.5591 95.8183 33.5612 95.7976 33.564C95.777 33.5668 95.7529 33.5675 95.726 33.5675C95.6992 33.5675 95.6758 33.5661 95.6544 33.564C95.6331 33.5619 95.6159 33.5591 95.6014 33.5549C95.5869 33.5514 95.5759 33.5473 95.5683 33.5417C95.5608 33.5368 95.5566 33.5312 95.5566 33.5256V31.5239C95.5566 31.5183 95.5601 31.5127 95.5683 31.5078C95.5759 31.5029 95.5869 31.4987 95.6014 31.496C95.6159 31.4932 95.6331 31.4904 95.6544 31.4883C95.6751 31.4862 95.6992 31.4848 95.726 31.4848C95.7529 31.4848 95.7763 31.4862 95.7976 31.4883C95.819 31.4904 95.8369 31.4932 95.852 31.496C95.8672 31.4987 95.8789 31.5029 95.8865 31.5078C95.894 31.5127 95.8982 31.5183 95.8982 31.5239V32.379H96.124C96.2059 32.379 96.2803 32.372 96.3471 32.358C96.4139 32.3441 96.4745 32.3225 96.5289 32.2925C96.5833 32.2625 96.6322 32.2248 96.6748 32.1781C96.7175 32.1314 96.7554 32.0763 96.7878 32.0128L97.0425 31.5448C97.046 31.5343 97.0522 31.5252 97.0597 31.5176C97.0673 31.5099 97.0776 31.5029 97.0914 31.498C97.1045 31.4932 97.1231 31.4897 97.1458 31.4869C97.1685 31.4848 97.1981 31.4834 97.2346 31.4834C97.267 31.4834 97.2939 31.4848 97.3145 31.4869C97.3352 31.489 97.3517 31.4918 97.3634 31.4953C97.3751 31.4987 97.3827 31.5036 97.3861 31.5085C97.3896 31.5134 97.3916 31.5197 97.3916 31.5273C97.3916 31.5392 97.3896 31.5504 97.3861 31.5608C97.382 31.572 97.3772 31.5824 97.3717 31.5922L97.1052 32.0553C97.0673 32.1279 97.0253 32.1886 96.9806 32.2367C96.9358 32.2855 96.8904 32.3253 96.8449 32.3567C96.7995 32.388 96.7527 32.4118 96.7058 32.4292C96.659 32.4466 96.6136 32.4606 96.5702 32.4703V32.4745C96.639 32.4906 96.7031 32.5115 96.7623 32.5373C96.8215 32.5631 96.8759 32.5952 96.9255 32.6322C96.9751 32.6691 97.0212 32.7124 97.0632 32.7619C97.1052 32.8114 97.1424 32.8665 97.1747 32.9272L97.4784 33.4559C97.4818 33.4629 97.4853 33.4698 97.4887 33.4754C97.4915 33.481 97.4935 33.4873 97.4942 33.4929C97.4949 33.4984 97.4963 33.504 97.497 33.5082C97.4963 33.5145 97.497 33.518 97.497 33.5208Z" fill="white"/>
<path d="M101.689 32.4244C101.689 32.4767 101.671 32.5123 101.635 32.5318C101.598 32.5513 101.563 32.5611 101.529 32.5611H99.7627C99.7627 32.6831 99.7785 32.7933 99.8102 32.8917C99.8419 32.99 99.8935 33.0751 99.9665 33.1449C100.039 33.2153 100.133 33.269 100.25 33.3067C100.367 33.3443 100.51 33.3632 100.68 33.3632C100.8 33.3632 100.908 33.3555 101.003 33.3395C101.098 33.3234 101.181 33.306 101.251 33.2865C101.321 33.2669 101.378 33.2488 101.423 33.2335C101.467 33.2174 101.5 33.2097 101.518 33.2097C101.53 33.2097 101.54 33.2118 101.55 33.216C101.56 33.2202 101.567 33.2272 101.573 33.2369C101.578 33.246 101.582 33.2586 101.586 33.2725C101.589 33.2865 101.59 33.3053 101.59 33.3269C101.59 33.3374 101.589 33.3471 101.587 33.3562C101.585 33.366 101.583 33.3743 101.58 33.3827C101.578 33.3904 101.574 33.3981 101.567 33.4057C101.562 33.4127 101.554 33.4204 101.545 33.4274C101.535 33.4343 101.505 33.4476 101.456 33.4657C101.406 33.4838 101.341 33.502 101.261 33.5201C101.181 33.5382 101.087 33.5543 100.982 33.5689C100.876 33.5836 100.762 33.5906 100.64 33.5906C100.44 33.5906 100.262 33.5675 100.108 33.5222C99.9534 33.4762 99.8233 33.4092 99.7186 33.3199C99.614 33.2307 99.5341 33.1205 99.4797 32.9879C99.4253 32.8561 99.3984 32.7027 99.3984 32.529C99.3984 32.3623 99.4267 32.213 99.4831 32.0805C99.5396 31.9487 99.6201 31.8364 99.7248 31.7443C99.8295 31.6523 99.9562 31.5818 100.104 31.533C100.252 31.4842 100.417 31.4604 100.598 31.4604C100.793 31.4604 100.959 31.4849 101.096 31.5344C101.233 31.5839 101.346 31.6502 101.435 31.7332C101.524 31.8169 101.589 31.9131 101.63 32.024C101.671 32.1342 101.691 32.25 101.691 32.3721V32.4244H101.689ZM101.337 32.3483C101.343 32.1391 101.28 31.9766 101.149 31.8587C101.017 31.7408 100.825 31.6823 100.573 31.6823C100.444 31.6823 100.329 31.7004 100.231 31.7374C100.132 31.7743 100.05 31.8231 99.9816 31.8845C99.9141 31.9452 99.8618 32.0163 99.8253 32.0966C99.7888 32.1768 99.7682 32.2605 99.762 32.3476H101.337V32.3483Z" fill="white"/>
<path d="M105.642 31.6167C105.642 31.6341 105.639 31.6502 105.636 31.6648C105.632 31.6795 105.626 31.6913 105.619 31.7018C105.611 31.7122 105.602 31.7199 105.592 31.7255C105.582 31.7311 105.569 31.7346 105.556 31.7346H104.712V33.5097C104.712 33.5187 104.709 33.5264 104.703 33.5334C104.697 33.5403 104.689 33.5466 104.676 33.5508C104.664 33.555 104.647 33.5585 104.625 33.562C104.603 33.5648 104.574 33.5662 104.54 33.5662C104.508 33.5662 104.48 33.5648 104.459 33.562C104.437 33.5592 104.419 33.5557 104.406 33.5508C104.393 33.5466 104.383 33.541 104.379 33.5334C104.374 33.5264 104.372 33.518 104.372 33.5097V31.7346H103.528C103.515 31.7346 103.502 31.7318 103.492 31.7255C103.482 31.7199 103.473 31.7115 103.465 31.7018C103.458 31.6913 103.452 31.6795 103.448 31.6648C103.444 31.6502 103.442 31.6341 103.442 31.6167C103.442 31.5993 103.444 31.5832 103.448 31.5679C103.452 31.5525 103.458 31.5393 103.465 31.5288C103.473 31.5176 103.482 31.5093 103.492 31.5037C103.502 31.4981 103.515 31.4946 103.528 31.4946H105.557C105.57 31.4946 105.582 31.4974 105.593 31.5037C105.603 31.5093 105.612 31.5176 105.62 31.5288C105.627 31.54 105.633 31.5525 105.637 31.5679C105.639 31.5832 105.642 31.5993 105.642 31.6167Z" fill="white"/>
<path d="M109.751 33.5097C109.751 33.5187 109.748 33.5264 109.742 33.5334C109.735 33.5403 109.727 33.5466 109.715 33.5508C109.702 33.555 109.685 33.5585 109.663 33.562C109.641 33.5648 109.613 33.5662 109.579 33.5662C109.546 33.5662 109.519 33.5648 109.497 33.562C109.475 33.5592 109.457 33.5557 109.444 33.5508C109.431 33.5466 109.422 33.541 109.417 33.5334C109.413 33.5264 109.411 33.518 109.411 33.5097V32.2409C109.411 32.1858 109.412 32.1307 109.415 32.0756C109.417 32.0205 109.421 31.9654 109.425 31.9103C109.381 31.9668 109.333 32.0226 109.282 32.077C109.23 32.1314 109.178 32.1865 109.124 32.2416L107.905 33.5104C107.895 33.5208 107.886 33.5292 107.878 33.5369C107.87 33.5445 107.859 33.5501 107.846 33.5543C107.834 33.5585 107.819 33.562 107.802 33.5641C107.786 33.5662 107.763 33.5676 107.736 33.5676C107.709 33.5676 107.687 33.5662 107.669 33.5634C107.651 33.5606 107.636 33.5571 107.624 33.5522C107.613 33.5473 107.605 33.5424 107.6 33.5348C107.596 33.5271 107.594 33.5194 107.594 33.5111V31.5421C107.594 31.533 107.596 31.5253 107.6 31.5183C107.605 31.5114 107.614 31.5051 107.627 31.4995C107.64 31.4946 107.658 31.4911 107.68 31.4883C107.702 31.4863 107.729 31.4849 107.762 31.4849C107.828 31.4849 107.874 31.4897 107.897 31.4988C107.921 31.5086 107.933 31.5225 107.933 31.5414V32.8226C107.933 32.8763 107.932 32.9294 107.929 32.9817C107.926 33.034 107.922 33.0863 107.916 33.1386C107.96 33.0863 108.003 33.0347 108.046 32.9845C108.089 32.9335 108.136 32.8826 108.188 32.8324L109.424 31.5421C109.434 31.5316 109.444 31.5232 109.453 31.5163C109.463 31.5093 109.475 31.503 109.489 31.4988C109.503 31.4946 109.519 31.4911 109.538 31.489C109.556 31.487 109.579 31.4856 109.608 31.4856C109.635 31.4856 109.657 31.487 109.676 31.489C109.693 31.4911 109.709 31.4946 109.72 31.5002C109.731 31.5051 109.739 31.5114 109.744 31.519C109.749 31.526 109.751 31.5344 109.751 31.5428V33.5097Z" fill="white"/>
<path d="M114.292 33.5096C114.292 33.5187 114.289 33.5263 114.283 33.5333C114.277 33.5403 114.269 33.5466 114.256 33.5507C114.244 33.5549 114.227 33.5584 114.205 33.5619C114.183 33.5647 114.156 33.5661 114.123 33.5661C114.089 33.5661 114.061 33.5647 114.039 33.5619C114.017 33.5591 113.999 33.5556 113.987 33.5507C113.975 33.5466 113.966 33.541 113.96 33.5333C113.953 33.5256 113.951 33.518 113.951 33.5096V32.598H112.489V33.5096C112.489 33.5187 112.486 33.5263 112.48 33.5333C112.474 33.5403 112.465 33.5466 112.453 33.5507C112.441 33.5549 112.423 33.5584 112.401 33.5619C112.379 33.5647 112.351 33.5661 112.317 33.5661C112.284 33.5661 112.257 33.5647 112.235 33.5619C112.213 33.5591 112.196 33.5556 112.182 33.5507C112.169 33.5466 112.16 33.541 112.156 33.5333C112.151 33.5256 112.149 33.518 112.149 33.5096V31.5406C112.149 31.5315 112.151 31.5239 112.156 31.5169C112.16 31.5099 112.169 31.5036 112.182 31.498C112.196 31.4932 112.213 31.4897 112.235 31.4869C112.257 31.4848 112.284 31.4834 112.317 31.4834C112.351 31.4834 112.379 31.4848 112.401 31.4869C112.423 31.489 112.441 31.4925 112.453 31.498C112.465 31.5029 112.474 31.5092 112.48 31.5169C112.485 31.5239 112.489 31.5322 112.489 31.5406V32.3762H113.951V31.5406C113.951 31.5315 113.954 31.5239 113.96 31.5169C113.965 31.5099 113.974 31.5036 113.987 31.498C113.999 31.4932 114.017 31.4897 114.039 31.4869C114.061 31.4848 114.089 31.4834 114.123 31.4834C114.156 31.4834 114.183 31.4848 114.205 31.4869C114.227 31.489 114.244 31.4925 114.256 31.498C114.269 31.5029 114.278 31.5092 114.283 31.5169C114.289 31.5239 114.292 31.5322 114.292 31.5406V33.5096Z" fill="white"/>
<path d="M118.158 31.6128C118.158 31.6316 118.156 31.6484 118.153 31.663C118.149 31.6777 118.143 31.6895 118.135 31.7C118.128 31.7104 118.119 31.7174 118.11 31.723C118.1 31.7279 118.089 31.7307 118.076 31.7307H117.031V33.5106C117.031 33.5197 117.028 33.5274 117.022 33.5344C117.016 33.5413 117.008 33.5476 116.995 33.5518C116.983 33.556 116.966 33.5595 116.944 33.563C116.922 33.5657 116.893 33.5671 116.859 33.5671C116.827 33.5671 116.799 33.5657 116.778 33.563C116.756 33.5602 116.738 33.5567 116.725 33.5518C116.712 33.5476 116.702 33.542 116.698 33.5344C116.694 33.5267 116.691 33.519 116.691 33.5106V31.5981C116.691 31.5633 116.703 31.5375 116.725 31.5207C116.748 31.504 116.776 31.4956 116.809 31.4956H118.077C118.09 31.4956 118.102 31.4984 118.111 31.5047C118.121 31.5103 118.129 31.5186 118.137 31.5284C118.144 31.5389 118.15 31.5507 118.154 31.5654C118.158 31.58 118.158 31.5953 118.158 31.6128Z" fill="white"/>
<path d="M121.776 33.5096C121.776 33.5243 121.769 33.5355 121.757 33.5431C121.745 33.5508 121.728 33.5571 121.708 33.5606C121.688 33.5641 121.661 33.5661 121.626 33.5661C121.594 33.5661 121.566 33.5641 121.543 33.5606C121.52 33.5571 121.502 33.5515 121.49 33.5431C121.478 33.5355 121.471 33.5236 121.471 33.5096V33.2899C121.355 33.3855 121.227 33.4594 121.086 33.5117C120.946 33.5641 120.801 33.5899 120.65 33.5899C120.514 33.5899 120.393 33.5766 120.285 33.5494C120.177 33.5229 120.086 33.4838 120.012 33.4343C119.937 33.3841 119.88 33.3241 119.84 33.253C119.8 33.1818 119.78 33.1023 119.78 33.0137C119.78 32.9049 119.81 32.8101 119.869 32.7299C119.928 32.6497 120.012 32.582 120.121 32.5283C120.23 32.4746 120.361 32.4341 120.514 32.4076C120.666 32.3811 120.836 32.3672 121.023 32.3672H121.436V32.1977C121.436 32.1133 121.424 32.0394 121.401 31.9745C121.378 31.9096 121.341 31.8559 121.29 31.8127C121.238 31.7694 121.171 31.7367 121.089 31.715C121.007 31.6934 120.907 31.6823 120.788 31.6823C120.674 31.6823 120.571 31.6927 120.479 31.7136C120.388 31.7346 120.308 31.7583 120.239 31.7841C120.17 31.8099 120.114 31.8336 120.069 31.8545C120.024 31.8755 119.992 31.8859 119.973 31.8859C119.961 31.8859 119.951 31.8845 119.941 31.8817C119.932 31.8789 119.923 31.8734 119.917 31.8657C119.91 31.858 119.906 31.8476 119.903 31.835C119.9 31.8224 119.899 31.8078 119.899 31.7904C119.899 31.7597 119.901 31.7353 119.908 31.7178C119.914 31.7004 119.928 31.6816 119.952 31.6634C119.976 31.6453 120.018 31.6237 120.079 31.5993C120.14 31.5748 120.211 31.5518 120.289 31.5309C120.368 31.51 120.454 31.4925 120.545 31.48C120.637 31.4667 120.728 31.4604 120.82 31.4604C120.998 31.4604 121.147 31.4765 121.27 31.5093C121.391 31.5421 121.491 31.5888 121.566 31.6495C121.641 31.7101 121.695 31.7855 121.727 31.8748C121.76 31.964 121.776 32.0652 121.776 32.1782V33.5096H121.776ZM121.435 32.5806H120.963C120.825 32.5806 120.705 32.5904 120.602 32.6092C120.498 32.628 120.413 32.6559 120.344 32.6922C120.275 32.7285 120.224 32.7717 120.191 32.8226C120.158 32.8735 120.141 32.9314 120.141 32.997C120.141 33.11 120.189 33.2007 120.283 33.2676C120.377 33.3353 120.51 33.3688 120.682 33.3688C120.818 33.3688 120.944 33.3423 121.062 33.2892C121.179 33.2362 121.303 33.1546 121.435 33.0444V32.5806Z" fill="white"/>
</svg>
