<svg width="16" height="10" viewBox="0 0 16 10" fill="none" xmlns="http://www.w3.org/2000/svg">
<path fill-rule="evenodd" clip-rule="evenodd" d="M0.142883 5C0.142883 4.44772 0.590599 4 1.14288 4H14.8572C15.4095 4 15.8572 4.44772 15.8572 5C15.8572 5.55228 15.4095 6 14.8572 6H1.14288C0.590599 6 0.142883 5.55228 0.142883 5Z" fill="white"/>
<path fill-rule="evenodd" clip-rule="evenodd" d="M10.3406 0.483368C10.7311 0.0928443 11.3643 0.0928445 11.7548 0.483369L15.5643 4.29289C15.9548 4.68342 15.9548 5.31658 15.5643 5.70711L11.7548 9.51663C11.3643 9.90716 10.7311 9.90716 10.3406 9.51663C9.95004 9.12611 9.95004 8.49294 10.3406 8.10242L13.443 5L10.3406 1.89758C9.95004 1.50706 9.95004 0.873893 10.3406 0.483368Z" fill="white"/>
</svg>
