<svg width="24" height="24" viewBox="0 0 24 24" fill="none" xmlns="http://www.w3.org/2000/svg">
<path d="M20.668 13.312C20.7262 12.8976 20.7559 12.4796 20.757 12.061C20.757 9.62403 19.911 7.51703 18.244 5.79803C16.559 4.06303 14.489 3.18303 12.092 3.18303C11.8245 3.18264 11.5572 3.19532 11.291 3.22103C10.5306 2.8701 9.70243 2.69053 8.865 2.69503C7.256 2.69503 5.812 3.30503 4.691 4.46003C3.586 5.59503 3 7.04503 3 8.65203C3 9.48403 3.156 10.271 3.466 11C3.41955 11.3521 3.39617 11.7069 3.396 12.062C3.396 14.5 4.249 16.609 5.928 18.329C7.621 20.061 9.696 20.939 12.092 20.939C12.346 20.939 12.639 20.919 12.988 20.879C13.678 21.162 14.397 21.305 15.134 21.305C16.722 21.305 18.159 20.691 19.291 19.528C19.8396 18.9736 20.273 18.316 20.5663 17.5933C20.8596 16.8706 21.007 16.097 21 15.317C21 14.64 20.889 13.968 20.668 13.312ZM15.5 15.348C15.216 15.775 14.771 16.129 14.161 16.413C13.552 16.656 12.851 16.778 12.061 16.778C11.107 16.778 10.305 16.605 9.657 16.259C9.21501 16.0195 8.83864 15.6751 8.561 15.256C8.277 14.809 8.133 14.394 8.133 14.008C8.133 13.765 8.225 13.551 8.407 13.369C8.49873 13.2779 8.60818 13.2066 8.72858 13.1594C8.84899 13.1123 8.97778 13.0904 9.107 13.095C9.31 13.095 9.513 13.167 9.716 13.308C9.878 13.47 9.999 13.674 10.08 13.917C10.101 13.937 10.233 14.17 10.476 14.617C10.578 14.758 10.76 14.9 11.023 15.042C11.268 15.164 11.591 15.225 11.998 15.225C12.546 15.225 13.003 15.104 13.368 14.861C13.692 14.637 13.854 14.354 13.854 14.008C13.854 13.724 13.762 13.51 13.58 13.369C13.3817 13.1764 13.1429 13.0305 12.881 12.942L12.562 12.867L12.105 12.744C11.9603 12.6998 11.813 12.6644 11.664 12.638C10.975 12.497 10.387 12.314 9.898 12.09C9.472 11.928 9.087 11.645 8.742 11.239C8.459 10.853 8.316 10.396 8.316 9.86903C8.316 9.34103 8.468 8.87503 8.773 8.46903C9.077 8.06303 9.513 7.75803 10.081 7.55603C10.65 7.33203 11.3 7.22203 12.03 7.22203C12.578 7.22203 13.096 7.29203 13.582 7.43503C14.05 7.59703 14.425 7.79003 14.709 8.01403C14.972 8.25703 15.186 8.50003 15.348 8.74303C15.49 9.06703 15.562 9.33203 15.562 9.53403C15.5647 9.65846 15.5416 9.78211 15.4943 9.89723C15.447 10.0123 15.3764 10.1165 15.287 10.203C15.1977 10.2993 15.0896 10.3761 14.9694 10.4288C14.8491 10.4814 14.7193 10.5088 14.588 10.509C14.3802 10.5141 14.1767 10.4493 14.01 10.325C13.908 10.224 13.777 10.042 13.614 9.77803C13.4837 9.48253 13.2861 9.22159 13.037 9.01603C12.794 8.83403 12.418 8.74303 11.91 8.74303C11.403 8.74303 11.018 8.84503 10.754 9.04803C10.47 9.23203 10.328 9.44403 10.328 9.68703C10.328 9.84903 10.378 9.98303 10.48 10.083C10.582 10.226 10.712 10.338 10.876 10.419C10.978 10.479 11.15 10.551 11.394 10.631L11.804 10.737C12.017 10.79 12.195 10.824 12.337 10.844C12.62 10.905 13.108 11.036 13.798 11.24C14.204 11.381 14.589 11.563 14.954 11.788C15.3 12.03 15.553 12.305 15.716 12.608C15.878 12.973 15.958 13.379 15.958 13.825C15.9583 14.3667 15.799 14.8964 15.5 15.348Z" fill="#BCBEC0"/>
</svg>
