<svg width="24" height="24" viewBox="0 0 24 24" fill="none" xmlns="http://www.w3.org/2000/svg">
<path d="M18.891 7.01197C19.699 6.51597 20.234 5.83897 20.496 4.97797C19.7581 5.37708 18.9662 5.6671 18.145 5.83897C17.442 5.08297 16.552 4.69897 15.485 4.69897C14.442 4.69897 13.561 5.06497 12.842 5.77697C12.4948 6.11508 12.2202 6.52052 12.0352 6.96846C11.8502 7.41639 11.7586 7.89739 11.766 8.38197C11.766 8.69097 11.805 8.96697 11.883 9.20097C8.807 9.09597 6.261 7.81997 4.255 5.36397C3.915 5.96497 3.745 6.57697 3.745 7.20997C3.745 8.51097 4.294 9.54197 5.39 10.299C4.765 10.246 4.214 10.088 3.745 9.82898C3.745 10.758 4.018 11.534 4.565 12.217C5.09636 12.8825 5.84518 13.3396 6.68 13.508C6.368 13.588 6.039 13.626 5.701 13.626C5.389 13.626 5.168 13.6 5.037 13.543C5.267 14.3 5.701 14.914 6.328 15.384C6.94784 15.8546 7.70182 16.1149 8.48 16.127C7.148 17.172 5.625 17.689 3.902 17.689C3.48 17.689 3.181 17.683 3 17.651C4.697 18.753 6.586 19.3 8.676 19.3C10.815 19.3 12.705 18.758 14.35 17.674C15.995 16.596 17.209 15.266 17.989 13.7C18.7604 12.1847 19.162 10.5083 19.161 8.80797V8.33997C19.88 7.8099 20.5024 7.16009 21.001 6.41897C20.3276 6.71084 19.6178 6.91031 18.891 7.01197Z" fill="#BCBEC0"/>
</svg>
