<svg width="8" height="8" viewBox="0 0 8 8" fill="none" xmlns="http://www.w3.org/2000/svg">
<path fill-rule="evenodd" clip-rule="evenodd" d="M-0.000893287 3.99999C-0.000893275 3.86738 0.0517848 3.74021 0.145553 3.64644C0.239321 3.55267 0.366498 3.49999 0.499107 3.49999L6.29211 3.49999L4.14511 1.35399C4.09862 1.30751 4.06174 1.25232 4.03658 1.19158C4.01142 1.13084 3.99848 1.06574 3.99848 0.999993C3.99848 0.93425 4.01142 0.869149 4.03658 0.80841C4.06174 0.74767 4.09862 0.692481 4.14511 0.645993C4.19159 0.599506 4.24678 0.562629 4.30752 0.53747C4.36826 0.512311 4.43336 0.499362 4.49911 0.499362C4.56485 0.499362 4.62995 0.512311 4.69069 0.53747C4.75143 0.562629 4.80662 0.599506 4.85311 0.645993L7.85311 3.64599C7.89967 3.69244 7.93661 3.74762 7.96182 3.80836C7.98703 3.86911 8 3.93423 8 3.99999C8 4.06576 7.98703 4.13088 7.96182 4.19163C7.93661 4.25237 7.89967 4.30755 7.85311 4.35399L4.85311 7.35399C4.75922 7.44788 4.63188 7.50063 4.49911 7.50063C4.36633 7.50063 4.23899 7.44788 4.14511 7.35399C4.05122 7.26011 3.99848 7.13277 3.99848 6.99999C3.99848 6.86722 4.05122 6.73988 4.14511 6.64599L6.29211 4.49999L0.499107 4.49999C0.366498 4.49999 0.239321 4.44731 0.145553 4.35355C0.0517848 4.25978 -0.000893298 4.1326 -0.000893287 3.99999Z" fill="#BCBEC0"/>
</svg>
