<svg width="71" height="71" viewBox="0 0 71 71" fill="none" xmlns="http://www.w3.org/2000/svg">
<path d="M35.5 0.0625C15.9303 0.0625 0.0625 15.9303 0.0625 35.5C0.0625 55.0697 15.9303 70.9375 35.5 70.9375C55.0697 70.9375 70.9375 55.0697 70.9375 35.5C70.9375 15.9303 55.0697 0.0625 35.5 0.0625ZM46.8985 36.0458L29.6228 48.615C29.528 48.6831 29.4164 48.7237 29.3001 48.7325C29.1838 48.7412 29.0673 48.7177 28.9635 48.6646C28.8597 48.6114 28.7725 48.5307 28.7116 48.4313C28.6507 48.3318 28.6184 48.2175 28.6182 48.1009V22.9782C28.6178 22.8614 28.6498 22.7467 28.7106 22.6469C28.7714 22.5471 28.8586 22.4661 28.9627 22.4128C29.0667 22.3596 29.1834 22.3362 29.2999 22.3452C29.4165 22.3543 29.5282 22.3954 29.6228 22.4641L46.8985 35.0254C46.9801 35.0831 47.0467 35.1596 47.0927 35.2483C47.1386 35.3371 47.1626 35.4356 47.1626 35.5356C47.1626 35.6356 47.1386 35.7341 47.0927 35.8228C47.0467 35.9116 46.9801 35.9881 46.8985 36.0458Z" fill="white"/>
</svg>
