<svg width="24" height="24" viewBox="0 0 24 24" fill="none" xmlns="http://www.w3.org/2000/svg">
<path d="M15.4161 3H9.58389C4.26168 3 3 4.26168 3 9.58389V15.4161C3 20.7383 4.26168 22 9.58389 22H15.4161C20.7383 22 22 20.7383 22 15.4161V9.58389C22 4.26168 20.7259 3 15.4161 3ZM18.3385 16.5537H16.9592C16.4367 16.5537 16.2758 16.1393 15.336 15.1869C14.5196 14.3955 14.158 14.2904 13.9567 14.2904C13.6723 14.2904 13.5916 14.3706 13.5916 14.7606V16.0069C13.5916 16.3411 13.4865 16.5418 12.6018 16.5418C11.1389 16.5418 9.51561 15.6572 8.37743 14.009C6.66095 11.5937 6.19131 9.78457 6.19131 9.41052C6.19131 9.20924 6.27146 9.02103 6.65798 9.02103H8.04019C8.38989 9.02103 8.52289 9.18193 8.65885 9.55598C9.34224 11.529 10.4804 13.2573 10.9501 13.2573C11.1234 13.2573 11.2036 13.1772 11.2036 12.7348V10.6971C11.1507 9.75726 10.6562 9.67651 10.6562 9.34283C10.6562 9.18193 10.7892 9.02103 11.0023 9.02103H13.176C13.4699 9.02103 13.5779 9.18193 13.5779 9.52808V12.2771C13.5779 12.5739 13.7109 12.679 13.7911 12.679C13.9644 12.679 14.1129 12.5739 14.4341 12.2521C15.4268 11.1389 16.1381 9.42239 16.1381 9.42239C16.2307 9.22112 16.3916 9.03291 16.7413 9.03291H18.1235C18.538 9.03291 18.6306 9.24606 18.538 9.54292C18.3646 10.3468 16.673 12.7342 16.673 12.7342C16.5276 12.9753 16.4718 13.0804 16.673 13.3493C16.8215 13.5506 17.3042 13.968 17.6254 14.3421C18.2161 15.013 18.6704 15.5758 18.7915 15.9653C18.9274 16.3518 18.7268 16.5531 18.3367 16.5531L18.3385 16.5537Z" fill="#BCBEC0"/>
</svg>
