<svg width="32" height="32" viewBox="0 0 32 32" fill="none" xmlns="http://www.w3.org/2000/svg">
<path d="M24.0999 2.07227L29.6639 7.87227V29.9283H8.87891V30.0003H29.7349V7.94527L24.0999 2.07227Z" fill="#909090"/>
<path d="M24.0316 2H8.80859V29.928H29.6646V7.873L24.0306 2" fill="#F4F4F4"/>
<path d="M8.65562 3.5H2.26562V10.327H22.3656V3.5H8.65562Z" fill="#7A7B7C"/>
<path d="M22.4715 10.2109H2.39453V3.37891H22.4715V10.2109Z" fill="#DD2025"/>
<path d="M9.05309 4.5337H7.74609V9.3337H8.77409V7.7147L9.00109 7.7277C9.22166 7.7239 9.44016 7.68439 9.64809 7.6107C9.8304 7.54799 9.9981 7.449 10.1411 7.3197C10.2866 7.19652 10.4013 7.04105 10.4761 6.8657C10.5764 6.57419 10.6122 6.2644 10.5811 5.9577C10.5748 5.7386 10.5364 5.52162 10.4671 5.3137C10.404 5.1636 10.3103 5.0283 10.192 4.91639C10.0737 4.80448 9.93345 4.71842 9.78009 4.6637C9.6475 4.61569 9.51051 4.58086 9.37109 4.5597C9.26552 4.54341 9.15891 4.53472 9.05209 4.5337H9.05309ZM8.86309 6.8277H8.77409V5.3477H8.96709C9.05227 5.34155 9.13775 5.35463 9.21719 5.38596C9.29664 5.41729 9.36803 5.46607 9.42609 5.5287C9.54641 5.68971 9.61069 5.8857 9.60909 6.0867C9.60909 6.3327 9.60909 6.5557 9.38709 6.7127C9.22716 6.80066 9.04512 6.84027 8.86309 6.8267V6.8277ZM12.5341 4.5207C12.4231 4.5207 12.3151 4.5287 12.2391 4.5317L12.0011 4.5377H11.2211V9.3377H12.1391C12.4899 9.34731 12.8392 9.28785 13.1671 9.1627C13.431 9.05802 13.6647 8.88928 13.8471 8.6717C14.0245 8.45215 14.1518 8.19653 14.2201 7.9227C14.2987 7.61256 14.337 7.29361 14.3341 6.9737C14.3535 6.59585 14.3243 6.21709 14.2471 5.8467C14.1739 5.57406 14.0368 5.32279 13.8471 5.1137C13.6983 4.94486 13.5161 4.80867 13.3121 4.7137C13.1369 4.63261 12.9526 4.57285 12.7631 4.5357C12.6878 4.52325 12.6114 4.51756 12.5351 4.5187L12.5341 4.5207ZM12.3531 8.4557H12.2531V5.3917H12.2661C12.4723 5.36798 12.6808 5.40517 12.8661 5.4987C13.0018 5.60702 13.1123 5.7435 13.1901 5.8987C13.274 6.06203 13.3224 6.2413 13.3321 6.4247C13.3411 6.6447 13.3321 6.8247 13.3321 6.9737C13.3362 7.14533 13.3251 7.317 13.2991 7.4867C13.2683 7.66093 13.2113 7.8295 13.1301 7.9867C13.0382 8.13285 12.914 8.256 12.7671 8.3467C12.6437 8.42649 12.4976 8.46372 12.3511 8.4527L12.3531 8.4557ZM17.4311 4.5377H15.0011V9.3377H16.0291V7.4337H17.3291V6.5417H16.0291V5.4297H17.4291V4.5377" fill="#464648"/>
<path d="M21.7807 20.2545C21.7807 20.2545 24.9687 19.6765 24.9687 20.7655C24.9687 21.8545 22.9937 21.4115 21.7807 20.2545ZM19.4237 20.3375C18.9172 20.4494 18.4236 20.6133 17.9507 20.8265L18.3507 19.9265C18.7507 19.0265 19.1657 17.7995 19.1657 17.7995C19.643 18.6029 20.1984 19.3572 20.8237 20.0515C20.3521 20.1218 19.8847 20.218 19.4237 20.3395V20.3375ZM18.1617 13.8375C18.1617 12.8885 18.4687 12.6295 18.7077 12.6295C18.9467 12.6295 19.2157 12.7445 19.2247 13.5685C19.1468 14.3971 18.9733 15.2138 18.7077 16.0025C18.3438 15.3404 18.1555 14.5961 18.1607 13.8405L18.1617 13.8375ZM13.5127 24.3535C12.5347 23.7685 15.5637 21.9675 16.1127 21.9095C16.1097 21.9105 14.5367 24.9655 13.5127 24.3535ZM25.8997 20.8945C25.8897 20.7945 25.7997 19.6875 23.8297 19.7345C23.0086 19.7213 22.1878 19.7792 21.3767 19.9075C20.591 19.1159 19.9143 18.223 19.3647 17.2525C19.711 16.2519 19.9205 15.2092 19.9877 14.1525C19.9587 12.9525 19.6717 12.2645 18.7517 12.2745C17.8317 12.2845 17.6977 13.0895 17.8187 14.2875C17.9372 15.0926 18.1608 15.8786 18.4837 16.6255C18.4837 16.6255 18.0587 17.9485 17.4967 19.2645C16.9347 20.5805 16.5507 21.2705 16.5507 21.2705C15.5734 21.5887 14.6534 22.0613 13.8257 22.6705C13.0017 23.4375 12.6667 24.0265 13.1007 24.6155C13.4747 25.1235 14.7837 25.2385 15.9537 23.7055C16.5753 22.9137 17.1433 22.0812 17.6537 21.2135C17.6537 21.2135 19.4377 20.7245 19.9927 20.5905C20.5477 20.4565 21.2187 20.3505 21.2187 20.3505C21.2187 20.3505 22.8477 21.9895 24.4187 21.9315C25.9897 21.8735 25.9137 20.9925 25.9037 20.8965" fill="#DD2025"/>
<path d="M23.9531 2.07715V7.95015H29.5861L23.9531 2.07715Z" fill="#909090"/>
<path d="M24.0312 2V7.873H29.6642L24.0312 2Z" fill="#F4F4F4"/>
<path d="M8.97497 4.45655H7.66797V9.25655H8.69997V7.63855L8.92797 7.65155C9.14854 7.64775 9.36704 7.60824 9.57497 7.53455C9.75726 7.47182 9.92496 7.37283 10.068 7.24355C10.2124 7.12004 10.326 6.9646 10.4 6.78955C10.5003 6.49805 10.5361 6.18825 10.505 5.88155C10.4987 5.66246 10.4603 5.44547 10.391 5.23755C10.3278 5.08745 10.2342 4.95215 10.1159 4.84024C9.9976 4.72833 9.85732 4.64228 9.70397 4.58755C9.57077 4.53908 9.4331 4.50391 9.29297 4.48255C9.18739 4.46626 9.08079 4.45757 8.97397 4.45655H8.97497ZM8.78497 6.75055H8.69597V5.27055H8.88997C8.97515 5.26441 9.06062 5.27748 9.14007 5.30881C9.21952 5.34014 9.29091 5.38892 9.34897 5.45155C9.46929 5.61256 9.53356 5.80855 9.53197 6.00955C9.53197 6.25555 9.53197 6.47855 9.30997 6.63555C9.15004 6.72351 8.96799 6.76312 8.78597 6.74955L8.78497 6.75055ZM12.456 4.44355C12.345 4.44355 12.237 4.45155 12.161 4.45455L11.926 4.46055H11.146V9.26055H12.064C12.4148 9.27016 12.7641 9.2107 13.092 9.08555C13.3559 8.98087 13.5896 8.81213 13.772 8.59455C13.9493 8.375 14.0766 8.11939 14.145 7.84555C14.2235 7.53542 14.2618 7.21646 14.259 6.89655C14.2784 6.51871 14.2491 6.13994 14.172 5.76955C14.0988 5.49691 13.9616 5.24564 13.772 5.03655C13.6232 4.86771 13.441 4.73152 13.237 4.63655C13.0617 4.55546 12.8774 4.4957 12.688 4.45855C12.6126 4.4461 12.5363 4.44041 12.46 4.44155L12.456 4.44355ZM12.278 8.37855H12.178V5.31455H12.191C12.3971 5.29083 12.6057 5.32803 12.791 5.42155C12.9266 5.52987 13.0372 5.66635 13.115 5.82155C13.1989 5.98488 13.2473 6.16415 13.257 6.34755C13.266 6.56755 13.257 6.74755 13.257 6.89655C13.261 7.06818 13.25 7.23985 13.224 7.40955C13.1931 7.58378 13.1362 7.75235 13.055 7.90955C12.9631 8.0557 12.8389 8.17886 12.692 8.26955C12.5686 8.34935 12.4225 8.38657 12.276 8.37555L12.278 8.37855ZM17.353 4.46055H14.923V9.26055H15.951V7.35655H17.251V6.46455H15.951V5.35255H17.351V4.46055" fill="white"/>
</svg>
